<svg id="Capa_1" enable-background="new 0 0 510 510" height="512" viewBox="0 0 510 510" width="512" xmlns="http://www.w3.org/2000/svg" xmlns:xlink="http://www.w3.org/1999/xlink"><linearGradient id="SVGID_1_" gradientUnits="userSpaceOnUse" x1="149.697" x2="386.169" y1="218.919" y2="305.013"><stop offset="0" stop-color="#faa68e"/><stop offset=".2061" stop-color="#fba682"/><stop offset=".5808" stop-color="#fda861"/><stop offset="1" stop-color="#ffa936"/></linearGradient><linearGradient id="lg1"><stop offset="0" stop-color="#f82814" stop-opacity="0"/><stop offset=".2454" stop-color="#f12817" stop-opacity=".245"/><stop offset=".6052" stop-color="#dd2820" stop-opacity=".605"/><stop offset="1" stop-color="#c0272d"/></linearGradient><linearGradient id="SVGID_3_" gradientUnits="userSpaceOnUse" x1="389.744" x2="-52.59" xlink:href="#lg1" y1="359.226" y2="389.072"/><linearGradient id="SVGID_4_" gradientUnits="userSpaceOnUse" x1="403.386" x2="140.128" xlink:href="#lg1" y1="357.902" y2="376.269"/><linearGradient id="SVGID_5_" gradientUnits="userSpaceOnUse" x1="556.458" x2="464.624" xlink:href="#lg1" y1="305.932" y2="245.666"/><radialGradient id="SVGID_6_" cx="212.527" cy="142.465" gradientTransform="matrix(1 0 0 .69 0 44.231)" gradientUnits="userSpaceOnUse" r="340.936"><stop offset="0" stop-color="#a57c52"/><stop offset=".2601" stop-color="#a47950"/><stop offset=".4581" stop-color="#a26f4c"/><stop offset=".6356" stop-color="#9f5f44"/><stop offset=".8011" stop-color="#9a4838"/><stop offset=".9568" stop-color="#942b2a"/><stop offset="1" stop-color="#922125"/></radialGradient><linearGradient id="SVGID_7_" gradientTransform="matrix(-.892 -.452 .452 -.892 1887.727 -3966.638)" gradientUnits="userSpaceOnUse" x1="-380.527" x2="-353.733" xlink:href="#lg1" y1="-4682.952" y2="-4645.806"/><linearGradient id="SVGID_8_" gradientTransform="matrix(-.892 -.452 .452 -.892 1887.727 -3966.638)" gradientUnits="userSpaceOnUse" x1="-362.151" x2="-341" xlink:href="#lg1" y1="-4706.41" y2="-4677.085"/><linearGradient id="SVGID_9_" gradientTransform="matrix(-.892 -.452 .452 -.892 1887.727 -3966.638)" gradientUnits="userSpaceOnUse" x1="-393.05" x2="-380.298" xlink:href="#lg1" y1="-4707.231" y2="-4689.551"/><linearGradient id="SVGID_10_" gradientTransform="matrix(-.258 -.966 .966 -.258 2935 -2505.371)" gradientUnits="userSpaceOnUse" x1="-2091.081" x2="-2071.282" xlink:href="#lg1" y1="-3444.857" y2="-3417.409"/><linearGradient id="SVGID_11_" gradientTransform="matrix(-.258 -.966 .966 -.258 2935 -2505.371)" gradientUnits="userSpaceOnUse" x1="-2077.502" x2="-2061.873" xlink:href="#lg1" y1="-3462.191" y2="-3440.523"/><linearGradient id="SVGID_12_" gradientTransform="matrix(-.258 -.966 .966 -.258 2935 -2505.371)" gradientUnits="userSpaceOnUse" x1="-2100.335" x2="-2090.911" xlink:href="#lg1" y1="-3462.798" y2="-3449.734"/><linearGradient id="SVGID_13_" gradientTransform="matrix(-.258 -.966 .966 -.258 2935 -2505.371)" gradientUnits="userSpaceOnUse" x1="-2136.516" x2="-2116.718" xlink:href="#lg1" y1="-3152.285" y2="-3124.837"/><linearGradient id="SVGID_14_" gradientTransform="matrix(-.258 -.966 .966 -.258 2935 -2505.371)" gradientUnits="userSpaceOnUse" x1="-2122.938" x2="-2107.308" xlink:href="#lg1" y1="-3169.619" y2="-3147.95"/><linearGradient id="SVGID_15_" gradientTransform="matrix(-.258 -.966 .966 -.258 2935 -2505.371)" gradientUnits="userSpaceOnUse" x1="-2145.77" x2="-2136.347" xlink:href="#lg1" y1="-3170.226" y2="-3157.162"/><linearGradient id="lg2"><stop offset="0" stop-color="#42210b" stop-opacity="0"/><stop offset="1" stop-color="#42210b"/></linearGradient><linearGradient id="SVGID_16_" gradientUnits="userSpaceOnUse" x1="248.763" x2="-36.497" xlink:href="#lg2" y1="238.495" y2="-119.657"/><linearGradient id="lg3"><stop offset="0" stop-color="#ffdecf"/><stop offset=".3791" stop-color="#fdc4b0"/><stop offset=".7655" stop-color="#fbae97"/><stop offset="1" stop-color="#faa68e"/></linearGradient><linearGradient id="SVGID_17_" gradientUnits="userSpaceOnUse" x1="126.178" x2="222.604" xlink:href="#lg3" y1="97.515" y2="256.694"/><linearGradient id="SVGID_18_" gradientUnits="userSpaceOnUse" x1="453.863" x2="151.455" xlink:href="#lg2" y1="223.068" y2="-79.339"/><linearGradient id="SVGID_19_" gradientUnits="userSpaceOnUse" x1="347.362" x2="417.86" xlink:href="#lg3" y1="118.27" y2="204.094"/><linearGradient id="SVGID_20_" gradientUnits="userSpaceOnUse" x1="385.085" x2="216.34" xlink:href="#lg2" y1="362.588" y2="11.323"/><linearGradient id="SVGID_21_" gradientUnits="userSpaceOnUse" x1="304.502" x2="375.673" xlink:href="#lg3" y1="216.734" y2="343.771"/><g><path d="m255 43.284c-140.827 0-255 95.794-255 213.973s114.173 213.973 255 213.973 255-95.794 255-213.973-114.173-213.973-255-213.973zm.747 92.114c-.294-.001-.585-.011-.88-.01.044 0 .088-.002.132-.002.252 0 .498.011.748.012zm-.747 107.732c-34.28 0-63.692-13.525-76.305-32.812 12.573-19.269 41.848-32.869 76.038-33.038 34.442-.171 64.033 13.337 76.643 32.708-12.556 19.37-42.002 33.142-76.376 33.142z" fill="url(#SVGID_1_)"/><path d="m255 43.284c-140.827 0-255 95.794-255 213.973s114.173 213.973 255 213.973 255-95.794 255-213.973-114.173-213.973-255-213.973zm.747 92.114c-.294-.001-.585-.011-.88-.01.044 0 .088-.002.132-.002.252 0 .498.011.748.012zm-.747 107.732c-34.28 0-63.692-13.525-76.305-32.812 12.573-19.269 41.848-32.869 76.038-33.038 34.442-.171 64.033 13.337 76.643 32.708-12.556 19.37-42.002 33.142-76.376 33.142z" fill="url(#SVGID_1_)"/><path d="m510 257.258h-138.945c-92.054 0-166.678 74.625-166.678 166.678 0 7.151 3.183 13.546 8.193 17.886l29.12 29.12c4.408.19 8.846.288 13.31.288 140.827.001 255-95.794 255-213.972z" fill="url(#SVGID_3_)"/><path d="m510 257.258h-78.989c-82.145 0-148.736 66.592-148.736 148.736 0 7.316 3.245 14.006 8.396 18.503l37.722 37.722c105.051-26.45 181.607-108.194 181.607-204.961z" fill="url(#SVGID_4_)"/><path d="m510 257.258c0-57.725-27.25-110.101-71.531-148.589v219.766c.347 6.4 3.242 12.115 7.679 16.171l25.514 25.514c24.292-32.765 38.338-71.434 38.338-112.862z" fill="url(#SVGID_5_)"/><path d="m510 205.967c0-92.344-114.173-167.197-255-167.197s-255 74.852-255 167.197c0 18.034 4.362 35.398 12.423 51.669 7.989 16.124 11.844 33.982 11.844 51.977v34.974c0 13.061 10.317 24.124 23.378 24.282 6.648.081 12.672-2.586 17.018-6.932 4.282-4.282 6.933-10.205 6.933-16.737 0-9.859 10.572-16.088 19.201-11.32 24.842 13.725 53.736 24.396 85.34 31.129 16.422 3.499 28.24 17.877 28.24 34.668v24.26c0 13.075 10.595 23.67 23.659 23.67 6.532 0 12.455-2.652 16.737-6.933 4.282-4.282 6.933-10.205 6.933-16.737v-24.795c0-8.437 6.842-15.29 15.29-15.29 4.213 0 8.035 1.71 10.802 4.477 2.767 2.778 4.477 6.589 4.477 10.813v6.848c0 13.061 10.318 24.124 23.378 24.282 6.647.08 12.672-2.586 17.018-6.932 4.282-4.282 6.933-10.194 6.933-16.737v-11.765c0-16.404 10.836-30.893 26.617-35.373 29.258-8.306 55.673-20.103 78.026-34.59 1.794-1.163 4.158.13 4.158 2.268 0 13.063 10.595 23.659 23.67 23.659 6.532 0 12.443-2.652 16.725-6.933 4.282-4.282 6.934-10.194 6.934-16.725v-23.396c0-15.083 3.441-30.024 10.451-43.38 8.949-17.054 13.815-35.354 13.815-54.401zm-255.267-70.58c45.779-.227 82.999 23.707 83.146 53.461.148 29.754-36.833 54.055-82.612 54.282s-82.999-23.707-83.146-53.461c-.148-29.754 36.833-54.056 82.612-54.282z" fill="url(#SVGID_6_)"/><g opacity=".6"><g><circle cx="110.123" cy="368.88" fill="url(#SVGID_7_)" r="9.676"/><circle cx="83.617" cy="384.576" fill="url(#SVGID_8_)" r="7.639"/><circle cx="111.534" cy="403.824" fill="url(#SVGID_9_)" r="4.605"/></g><g><circle cx="154.045" cy="396.114" fill="url(#SVGID_10_)" r="7.15"/><circle cx="132.343" cy="389.249" fill="url(#SVGID_11_)" r="5.645"/><circle cx="135.496" cy="414.106" fill="url(#SVGID_12_)" r="3.403"/></g><g><circle cx="448.425" cy="364.437" fill="url(#SVGID_13_)" r="7.15"/><circle cx="426.723" cy="357.573" fill="url(#SVGID_14_)" r="5.645"/><circle cx="429.876" cy="382.43" fill="url(#SVGID_15_)" r="3.403"/></g></g><path d="m274.14 63.642c-4.801-9.413-19.195-10.181-24.188-10.446-11.651-.618-27.773.804-47.925 4.222-85.522 14.503-153.611 85.677-156.468 88.7-3.266 3.456-3.112 8.905.344 12.171l28.042 27.016c-12.011 13.078-23.434 28.882-26.423 44.008-2.74 13.861 2.57 22.437 7.507 27.19l104.548 104.547c5.431 1.438 10.951 2.763 16.56 3.959 16.422 3.499 28.24 17.877 28.24 34.668v6.174l37.362 37.362c1.078-.767 2.101-1.606 3.034-2.539 4.282-4.282 6.933-10.205 6.933-16.737v-24.795c0-8.437 6.842-15.29 15.29-15.29 4.213 0 8.035 1.71 10.802 4.477 2.767 2.778 4.477 6.589 4.477 10.813v6.848c0 13.061 10.318 24.124 23.378 24.282 6.648.08 12.672-2.586 17.018-6.932 4.282-4.282 6.933-10.194 6.933-16.737v-11.765c0-16.404 10.836-30.893 26.617-35.373 29.258-8.306 55.673-20.103 78.026-34.59 1.794-1.163 4.158.13 4.158 2.268 0 13.063 10.595 23.659 23.67 23.659 6.532 0 12.443-2.652 16.725-6.933 4.282-4.282 6.934-10.194 6.934-16.725v-23.396c0-8.528 1.102-17.011 3.325-25.187zm-18.873 179.487c-45.779.227-82.999-23.707-83.146-53.461s36.833-54.055 82.612-54.282 82.999 23.707 83.146 53.461c.148 29.754-36.833 54.056-82.612 54.282z" fill="url(#SVGID_16_)"/><path d="m75.692 264.079c-8.495.001-15.433-2.54-20.663-7.576-4.937-4.753-10.247-13.328-7.507-27.19 4.859-24.583 31.988-50.968 47.727-64.507 26.185-22.526 58.447-42.256 88.516-54.131 49.585-19.584 68.248-33.324 73.282-39.197-4.859-1.267-18.377-2.808-52.141 2.917-79.902 13.549-146.172 82.851-146.831 83.55-3.266 3.456-8.714 3.61-12.171.344-3.456-3.266-3.61-8.715-.344-12.171 2.857-3.023 70.945-74.197 156.468-88.7 20.152-3.417 36.274-4.84 47.925-4.222 5.414.286 21.888 1.157 25.194 13.006 3.39 12.152-10.806 22.943-21.778 30.002-14.469 9.309-36.35 19.85-63.278 30.486-28.351 11.197-58.826 29.848-83.611 51.17-23.565 20.271-39.29 40.755-42.064 54.792-1.337 6.766.819 9.774 2.558 11.447 5.042 4.852 17.038 3.337 34.693-4.382 21.297-9.311 48.299-26.714 69.443-40.835 3.953-2.642 9.3-1.576 11.941 2.378s1.576 9.301-2.378 11.941c-21.735 14.516-49.574 32.441-72.11 42.293-11.42 4.993-20.924 7.748-29.054 8.422-1.305.109-2.578.163-3.817.163z" fill="url(#SVGID_17_)"/><path d="m510 205.968c0 19.044-4.867 37.342-13.821 54.4-7.002 13.35-10.446 28.296-10.446 43.38v23.395c0 2.422-.367 4.775-1.056 6.979l-146.843-146.842c-1.228-25.185-29.031-45.883-65.73-50.784.069-2.824 1.504-5.567 4.087-7.152 32.004-19.744 62.332-36.481 82.857-42.703 26.781-8.127 47.203-5.74 60.691 7.117l87.518 87.667c1.802 8.013 2.743 16.198 2.743 24.543z" fill="url(#SVGID_18_)"/><path d="m341.724 188.209c-3.123 0-6.136-1.705-7.663-4.674-2.175-4.228-.509-9.419 3.72-11.594 19.734-10.148 72.154-37.105 74.815-55.549.308-2.132.151-5.506-4.74-10.169-16.668-15.888-60.72-.408-122.627 37.773-4.047 2.495-9.35 1.238-11.847-2.809-2.495-4.047-1.239-9.352 2.809-11.848 32.004-19.738 62.327-36.476 82.852-42.703 26.791-8.127 47.211-5.731 60.693 7.125 9.825 9.366 10.808 18.814 9.902 25.09-3.261 22.605-35.932 43.693-83.983 68.404-1.26.647-2.604.954-3.931.954z" fill="url(#SVGID_19_)"/><path d="m509.181 219.38-31.272-31.272c-1.466-1.72-3.271-3.377-5.417-4.968-32.198-23.867-95.919 19.115-163.377 64.621-16.499 11.13-32.432 21.875-47.38 31.26-.076-.047-.151-.095-.228-.139-.069-.119-37.848-37.958-37.923-38.074-.551-.854-1.233-1.569-1.995-2.154-1.93-.548-3.83-1.132-5.679-1.771-1.457.073-2.915.51-4.228 1.358-24.081 15.537-55.09 39.425-46.406 67.363 2.167 6.971 5.631 11.6 9.298 14.681l77.222 77.222c.816-7.67 7.305-13.656 15.2-13.656 4.213 0 8.035 1.71 10.802 4.477 2.767 2.778 4.477 6.589 4.477 10.813v6.848c0 13.061 10.318 24.124 23.378 24.282 6.648.08 12.672-2.586 17.018-6.932 4.282-4.282 6.933-10.194 6.933-16.737v-11.765c0-16.404 10.836-30.893 26.617-35.373 29.258-8.306 55.673-20.103 78.026-34.59 1.794-1.163 4.158.13 4.158 2.268 0 13.063 10.595 23.659 23.67 23.659 6.532 0 12.443-2.652 16.725-6.933 4.282-4.282 6.934-10.194 6.934-16.725v-23.396c0-15.083 3.441-30.024 10.451-43.38 6.827-13.01 11.269-26.748 12.996-40.987z" fill="url(#SVGID_20_)"/><path d="m193.746 326.69c-3.954.001-7.616-.556-10.969-1.734-5.883-2.067-13.693-7.103-17.501-19.352-8.685-27.939 22.325-51.826 46.406-67.363 3.994-2.578 9.324-1.429 11.902 2.567s1.429 9.324-2.567 11.902c-29.93 19.311-43.152 35.387-39.298 47.783 1.806 5.811 4.565 7.444 6.768 8.218 5.671 1.992 18.307 1.212 46.292-13.829 22.056-11.853 47.45-28.984 74.337-47.121 67.458-45.506 131.18-88.488 163.377-64.621 6.962 5.16 10.362 11.025 10.105 17.432-.518 12.913-14.67 21.742-38.115 36.368-26.43 16.487-62.627 39.068-91.889 76.195-2.945 3.735-8.356 4.376-12.091 1.432-3.734-2.943-4.375-8.357-1.433-12.091 31.123-39.487 68.794-62.987 96.299-80.145 12.124-7.564 28.663-17.881 29.982-22.327-.202-.365-.913-1.4-3.111-3.03-22.418-16.615-89.55 28.673-143.495 65.062-50.982 34.391-95.845 64.651-124.999 64.654z" fill="url(#SVGID_21_)"/></g></svg>