<svg id="Capa_1" enable-background="new 0 0 510 510" height="512" viewBox="0 0 510 510" width="512" xmlns="http://www.w3.org/2000/svg" xmlns:xlink="http://www.w3.org/1999/xlink"><linearGradient id="lg1"><stop offset="0" stop-color="#ffd945"/><stop offset=".3043" stop-color="#ffcd3e"/><stop offset=".8558" stop-color="#ffad2b"/><stop offset="1" stop-color="#ffa325"/></linearGradient><linearGradient id="SVGID_1_" gradientUnits="userSpaceOnUse" x1="200.364" x2="335.357" xlink:href="#lg1" y1="225.74" y2="540.724"/><linearGradient id="lg2"><stop offset="0" stop-color="#f82814" stop-opacity="0"/><stop offset="1" stop-color="#c0272d"/></linearGradient><linearGradient id="SVGID_2_" gradientUnits="userSpaceOnUse" x1="72.404" x2="237.736" xlink:href="#lg2" y1="447.26" y2="-235.519"/><linearGradient id="SVGID_3_" gradientUnits="userSpaceOnUse" x1="297.128" x2="613.612" xlink:href="#lg2" y1="414.528" y2="656.016"/><linearGradient id="SVGID_4_" gradientUnits="userSpaceOnUse" x1="233.391" x2="362.053" xlink:href="#lg2" y1="479.746" y2="-51.599"/><linearGradient id="SVGID_5_" gradientUnits="userSpaceOnUse" x1="302.575" x2="258.575" xlink:href="#lg1" y1="458.606" y2="294.606"/><linearGradient id="SVGID_6_" gradientUnits="userSpaceOnUse" x1="286.557" x2="220.557" xlink:href="#lg2" y1="412.385" y2="61.385"/><linearGradient id="SVGID_7_" gradientUnits="userSpaceOnUse" x1="255" x2="255" xlink:href="#lg1" y1="330.703" y2="190.035"/><linearGradient id="SVGID_8_" gradientUnits="userSpaceOnUse" x1="239.741" x2="275.524" y1="217.576" y2="352.63"><stop offset="0" stop-color="#a57c52"/><stop offset=".1339" stop-color="#a26c4a"/><stop offset=".5155" stop-color="#994336"/><stop offset=".8174" stop-color="#942a2a"/><stop offset="1" stop-color="#922125"/></linearGradient><linearGradient id="SVGID_9_" gradientUnits="userSpaceOnUse" x1="179.744" x2="187.719" xlink:href="#lg1" y1="230.083" y2="260.182"/><linearGradient id="SVGID_10_" gradientUnits="userSpaceOnUse" x1="241.058" x2="249.933" xlink:href="#lg1" y1="256.507" y2="290.003"/><linearGradient id="SVGID_11_" gradientUnits="userSpaceOnUse" x1="303.829" x2="312.264" xlink:href="#lg1" y1="284.965" y2="316.801"/><linearGradient id="SVGID_12_" gradientUnits="userSpaceOnUse" x1="377.225" x2="359.892" xlink:href="#lg2" y1="301.606" y2="268.606"/><linearGradient id="SVGID_13_" gradientUnits="userSpaceOnUse" x1="373.641" x2="378.046" xlink:href="#lg1" y1="312.708" y2="329.334"/><linearGradient id="lg3"><stop offset="0" stop-color="#f8f6fb"/><stop offset="1" stop-color="#efdcfb"/></linearGradient><linearGradient id="SVGID_14_" gradientUnits="userSpaceOnUse" x1="164.545" x2="209.353" xlink:href="#lg3" y1="189.268" y2="314.133"/><linearGradient id="lg4"><stop offset="0" stop-color="#efdcfb" stop-opacity="0"/><stop offset=".0287" stop-color="#e9d6f7" stop-opacity=".029"/><stop offset=".2203" stop-color="#c5b5de" stop-opacity=".22"/><stop offset=".4138" stop-color="#aa9bcb" stop-opacity=".414"/><stop offset=".6078" stop-color="#9688bd" stop-opacity=".608"/><stop offset=".8028" stop-color="#8a7db5" stop-opacity=".803"/><stop offset="1" stop-color="#8679b2"/></linearGradient><linearGradient id="SVGID_15_" gradientUnits="userSpaceOnUse" x1="184.726" x2="32.081" xlink:href="#lg4" y1="210.63" y2="70.829"/><linearGradient id="SVGID_16_" gradientUnits="userSpaceOnUse" x1="200.257" x2="16.389" xlink:href="#lg4" y1="201.266" y2="123.994"/><linearGradient id="SVGID_17_" gradientUnits="userSpaceOnUse" x1="218.696" x2="145.51" xlink:href="#lg4" y1="179.782" y2="228.772"/><linearGradient id="SVGID_18_" gradientUnits="userSpaceOnUse" x1="192.747" x2="358.039" xlink:href="#lg4" y1="234.469" y2="344.796"/><linearGradient id="SVGID_19_" gradientUnits="userSpaceOnUse" x1="302.598" x2="347.406" xlink:href="#lg3" y1="189.268" y2="314.133"/><linearGradient id="SVGID_20_" gradientUnits="userSpaceOnUse" x1="320.877" x2="168.232" xlink:href="#lg4" y1="208.887" y2="69.086"/><linearGradient id="SVGID_21_" gradientUnits="userSpaceOnUse" x1="338.668" x2="154.8" xlink:href="#lg4" y1="201.416" y2="124.144"/><linearGradient id="SVGID_22_" gradientUnits="userSpaceOnUse" x1="357.748" x2="284.562" xlink:href="#lg4" y1="179.114" y2="228.104"/><linearGradient id="SVGID_23_" gradientUnits="userSpaceOnUse" x1="341.415" x2="506.706" xlink:href="#lg4" y1="241.553" y2="351.88"/><linearGradient id="SVGID_24_" gradientUnits="userSpaceOnUse" x1="365.194" x2="164.782" xlink:href="#lg4" y1="325.665" y2="167.445"/><linearGradient id="SVGID_25_" gradientUnits="userSpaceOnUse" x1="232.642" x2="279.394" xlink:href="#lg3" y1="242.156" y2="372.438"/><linearGradient id="SVGID_26_" gradientUnits="userSpaceOnUse" x1="254.379" x2="95.111" xlink:href="#lg4" y1="265.067" y2="119.201"/><linearGradient id="SVGID_27_" gradientUnits="userSpaceOnUse" x1="269.742" x2="77.897" xlink:href="#lg4" y1="254.606" y2="173.982"/><linearGradient id="SVGID_28_" gradientUnits="userSpaceOnUse" x1="288.628" x2="212.267" xlink:href="#lg4" y1="232.602" y2="283.718"/><linearGradient id="SVGID_29_" gradientUnits="userSpaceOnUse" x1="261.961" x2="434.424" xlink:href="#lg4" y1="289.246" y2="404.36"/><linearGradient id="SVGID_30_" gradientUnits="userSpaceOnUse" x1="251.168" x2="265.617" xlink:href="#lg1" y1="140.896" y2="191.569"/><linearGradient id="SVGID_31_" gradientUnits="userSpaceOnUse" x1="230.857" x2="301.992" xlink:href="#lg1" y1="148.046" y2="397.517"/><linearGradient id="SVGID_34_" gradientUnits="userSpaceOnUse" x1="208.2" x2="279.2" xlink:href="#lg1" y1="170.406" y2="301.406"/><linearGradient id="lg5"><stop offset="0" stop-color="#e87264" stop-opacity="0"/><stop offset="1" stop-color="#f8dfbe"/></linearGradient><linearGradient id="SVGID_35_" gradientUnits="userSpaceOnUse" x1="306.625" x2="394.013" xlink:href="#lg5" y1="137.486" y2="179.075"/><linearGradient id="SVGID_36_" gradientUnits="userSpaceOnUse" x1="242.332" x2="304.243" y1="64.986" y2="79.553"><stop offset="0" stop-color="#e87264" stop-opacity="0"/><stop offset=".1575" stop-color="#e97869" stop-opacity=".158"/><stop offset=".3778" stop-color="#ec8b78" stop-opacity=".378"/><stop offset=".6353" stop-color="#f0a991" stop-opacity=".635"/><stop offset=".9188" stop-color="#f6d2b3" stop-opacity=".919"/><stop offset="1" stop-color="#f8dfbe"/></linearGradient><linearGradient id="SVGID_37_" gradientUnits="userSpaceOnUse" x1="154.563" x2="201.894" xlink:href="#lg5" y1="135.797" y2="154.242"/><g><g><path d="m0 425.169c0 113.108 510 113.108 510 0 0-.474 0-143.415 0-143.889 0-113.108-510-113.108-510 0z" fill="url(#SVGID_1_)"/><path d="m171.875 200.592c-94.484 9.734-171.875 36.629-171.875 80.689v143.889c0 44.06 77.391 70.954 171.875 80.688z" fill="url(#SVGID_2_)"/><path d="m357.536 202.871c-150.269-19.831-357.536 6.302-357.536 78.41v143.889c0 72.107 207.267 98.24 357.536 78.41z" fill="url(#SVGID_3_)"/><path d="m0 351.442v73.727c0 113.108 510 113.108 510 0 0-.241 0-37.289 0-73.727 0 113.108-510 113.108-510 0z" fill="url(#SVGID_4_)"/><path d="m510 281.281c0 113.108-510 113.108-510 0s510-113.108 510 0z" fill="url(#SVGID_5_)"/><path d="m510 281.28c0 87.85-307.67 107.47-445.07 58.85l-37.51-37.51c-9.88-9.04-15.42-19.31-15.42-30.8v-18.7c2.14-2.35 4.55-4.62 7.22-6.82.31-.25.63-.51.95-.76.37-.3.74-.6 1.12-.88 84.17-65.18 392.94-64.27 470.79 2.74 11.46 9.86 17.92 21.16 17.92 33.88z" fill="url(#SVGID_6_)"/><path d="m484.667 227.513c0 92.015-459.333 92.015-459.333 0s459.333-92.015 459.333 0z" fill="url(#SVGID_7_)"/><path d="m457 275.167c0 89.599-404 89.599-404 0s404-89.599 404 0z" fill="url(#SVGID_8_)"/><g><path d="m314.28 210.61-253.96 84.31c-4.74-6.01-7.32-12.59-7.32-19.75 0-1.62.13-3.2.39-4.76l187.65-62.29c24.63-.51 49.53.32 73.24 2.49z" fill="url(#SVGID_9_)"/><path d="m408.49 229.61-290.59 96.47c-14.2-4.08-26.7-8.95-36.83-14.58l282.95-93.94c16.42 3.21 31.48 7.23 44.47 12.05z" fill="url(#SVGID_10_)"/><path d="m454.96 264.46-232.37 77.14c-21.5-1.04-42.49-3.11-61.97-6.23l276.15-91.68c8.88 6.13 15.17 13.06 18.19 20.77z" fill="url(#SVGID_11_)"/><path d="m311.5 312.084 121.305-40.27-20.126-20.126-101.179 33.59z" fill="url(#SVGID_12_)"/><path d="m453.91 288.28c-15.1 30.8-83.4 48.44-159.46 52.93z" fill="url(#SVGID_13_)"/></g><g><g><g><path d="m193.104 155.403c-3.592-4.701-10.67-4.701-14.261 0-10.431 13.652-23.833 24.672-39.005 32.734-25.363 13.478-42.285 37.734-42.285 65.418 0 42.344 176.842 42.344 176.842 0 0-27.684-16.922-51.94-42.285-65.418-15.173-8.063-28.576-19.082-39.006-32.734z" fill="url(#SVGID_14_)"/><g fill="#fff"><path d="m130.871 238.382c-.29 2.026 1.117 3.903 3.143 4.193s3.903-1.117 4.193-3.143-1.117-3.903-3.143-4.193-3.903 1.117-4.193 3.143z"/><path d="m136.954 202.323c1.599.229 3.081-.882 3.31-2.481s-.882-3.081-2.481-3.31-3.081.882-3.31 2.481.882 3.081 2.481 3.31z"/><path d="m146.759 215.898c.964.138 1.858-.532 1.996-1.496s-.532-1.858-1.496-1.996-1.858.532-1.996 1.496.532 1.858 1.496 1.996z"/><path d="m110.19 240.515c1.944-.639 3.002-2.732 2.364-4.677-.639-1.944-2.732-3.003-4.677-2.364-1.944.639-3.003 2.732-2.364 4.677.639 1.944 2.733 3.002 4.677 2.364z"/><path d="m112.251 245.029c.504 1.535 2.157 2.37 3.692 1.866s2.37-2.157 1.866-3.692-2.157-2.37-3.692-1.866-2.37 2.157-1.866 3.692z"/><path d="m124.11 244.519c.925-.304 1.429-1.3 1.125-2.226-.304-.925-1.301-1.429-2.226-1.125s-1.429 1.301-1.125 2.226c.304.926 1.3 1.429 2.226 1.125z"/><path d="m130.472 215.025c1.273-.815 1.645-2.509.829-3.782-.815-1.273-2.509-1.645-3.782-.829-1.273.815-1.645 2.509-.829 3.782.815 1.273 2.508 1.644 3.782.829z"/><path d="m124.143 236.485c1.005-.644 1.299-1.98.655-2.986-.644-1.005-1.981-1.299-2.986-.655s-1.299 1.98-.655 2.986c.644 1.005 1.981 1.299 2.986.655z"/><path d="m130.979 229.529c-.606.388-.783 1.194-.395 1.8s1.194.783 1.8.395.783-1.194.395-1.8c-.388-.607-1.194-.783-1.8-.395z"/></g><path d="m274.394 253.555c0 18.957-35.434 29.424-74.584 31.407-29.358-9.195-50.651-36.605-50.651-68.992 0-14.575 4.313-28.139 11.738-39.492 2.365-3.617 5.198-6.898 8.243-9.964 1.484-1.494 2.926-3.029 4.323-4.606 1.876-2.097 3.668-4.266 5.377-6.506 2.181-2.856 5.646-3.979 8.836-3.358 2.067.388 4.015 1.506 5.431 3.358 10.425 13.651 23.832 24.674 39.001 32.734 25.367 13.477 42.286 37.733 42.286 65.419z" fill="url(#SVGID_15_)"/><path d="m232.107 188.135c-15.169-8.059-28.575-19.082-39.001-32.734-1.416-1.852-3.364-2.969-5.431-3.358-.029-.006-.058-.011-.088-.017-4.174-.77-8.163 2.215-8.75 6.418-.613 4.395-.931 8.885-.931 13.449 0 50.485 38.775 91.907 88.168 96.126 5.278-4.095 8.319-8.916 8.319-14.465.001-27.685-16.918-51.941-42.286-65.419z" fill="url(#SVGID_16_)"/><path d="m232.107 188.135c-15.169-8.059-28.575-19.082-39.001-32.734-1.416-1.852-3.364-2.969-5.431-3.358-.029-.006-.058-.011-.088-.017-.015-.003-.03-.005-.045-.008-2.126-.378-3.794 1.794-3.013 3.807 10.983 28.306 38.123 48.551 70.1 49.418-6.321-6.745-13.935-12.546-22.522-17.108z" fill="url(#SVGID_17_)"/><path d="m232.109 188.136c-15.172-8.062-28.575-19.081-39.005-32.734-3.592-4.701-10.67-4.701-14.261 0-.158.207-.323.407-.482.612 2.694 2.015 5.451 3.92 8.269 5.703 26.363 16.679 43.952 46.697 43.952 80.957 0 25.164-42.386 38.242-86.45 39.238 52.394 9.192 130.262-.26 130.262-28.359 0-27.683-16.921-51.939-42.285-65.417z" fill="url(#SVGID_18_)"/></g><g><path d="m331.157 155.403c-3.592-4.701-10.67-4.701-14.261 0-10.431 13.652-23.833 24.672-39.005 32.734-25.363 13.478-42.285 37.734-42.285 65.418 0 42.344 176.842 42.344 176.842 0 0-27.684-16.922-51.94-42.285-65.418-15.172-8.063-28.575-19.082-39.006-32.734z" fill="url(#SVGID_19_)"/><path d="m412.448 253.555c0 18.957-35.434 29.424-74.584 31.407-29.358-9.195-50.651-36.605-50.651-68.992 0-14.575 4.313-28.139 11.738-39.492 2.365-3.617 5.198-6.898 8.243-9.964 1.484-1.494 2.926-3.029 4.323-4.606 1.876-2.097 3.668-4.266 5.377-6.506 2.181-2.856 5.646-3.979 8.836-3.358 2.067.388 4.015 1.506 5.431 3.358 10.425 13.651 23.832 24.674 39.001 32.734 25.366 13.477 42.286 37.733 42.286 65.419z" fill="url(#SVGID_20_)"/><path d="m370.161 188.135c-15.169-8.059-28.576-19.082-39.001-32.734-1.416-1.852-3.364-2.969-5.431-3.358-.029-.006-.058-.011-.088-.017-4.174-.77-8.163 2.215-8.75 6.418-.613 4.395-.931 8.885-.931 13.449 0 50.485 38.775 91.907 88.168 96.126 5.278-4.095 8.319-8.916 8.319-14.465.001-27.685-16.919-51.941-42.286-65.419z" fill="url(#SVGID_21_)"/><path d="m370.161 188.135c-15.169-8.059-28.576-19.082-39.001-32.734-1.416-1.852-3.364-2.969-5.431-3.358-.029-.006-.058-.011-.088-.017-.015-.003-.03-.005-.045-.008-2.126-.378-3.794 1.794-3.013 3.807 10.983 28.306 38.123 48.551 70.1 49.418-6.321-6.745-13.935-12.546-22.522-17.108z" fill="url(#SVGID_22_)"/><g fill="#fff"><path d="m335.342 214.813c.29-2.026-1.117-3.903-3.143-4.193s-3.903 1.117-4.193 3.143 1.117 3.903 3.143 4.193 3.903-1.117 4.193-3.143z"/><path d="m358.036 229.616c-1.944.639-3.003 2.732-2.364 4.677.639 1.944 2.732 3.003 4.677 2.364 1.944-.639 3.003-2.732 2.364-4.677s-2.733-3.003-4.677-2.364z"/><path d="m367.296 198.424c-1.535.504-2.37 2.157-1.866 3.692s2.157 2.37 3.692 1.866 2.37-2.157 1.866-3.692-2.157-2.37-3.692-1.866z"/><path d="m342.103 208.675c-.925.304-1.429 1.301-1.125 2.226s1.301 1.429 2.226 1.125 1.429-1.301 1.125-2.226-1.3-1.429-2.226-1.125z"/><path d="m341.775 224.941c-1.273.815-1.645 2.509-.829 3.782.815 1.273 2.509 1.645 3.782.829 1.273-.815 1.645-2.509.829-3.782-.815-1.273-2.508-1.645-3.782-.829z"/><path d="m342.07 216.71c-1.005.644-1.299 1.981-.655 2.986s1.98 1.299 2.986.655c1.005-.644 1.298-1.981.655-2.986-.644-1.006-1.981-1.299-2.986-.655z"/><path d="m335.234 223.666c.606-.388.783-1.194.395-1.8s-1.194-.783-1.8-.395-.783 1.194-.395 1.8 1.194.783 1.8.395z"/></g><path d="m370.163 188.136c-15.172-8.062-28.575-19.081-39.005-32.734-3.592-4.701-10.67-4.701-14.261 0-.158.207-.323.407-.482.612 2.694 2.015 5.451 3.92 8.269 5.703 26.363 16.679 43.952 46.697 43.952 80.957 0 25.164-42.386 38.242-86.45 39.238 52.394 9.192 130.262-.26 130.262-28.359 0-27.683-16.922-51.939-42.285-65.417z" fill="url(#SVGID_23_)"/></g></g><path d="m351.726 283.882-25.858-25.858c-6.443-6.696-14.115-12.472-22.73-17.049-6.325-3.361-12.349-7.223-18.005-11.548-.235-.257-7.934-3.458-13.285-8.783-5.861-5.833-9.408-13.823-9.408-13.823-1.385-1.813-3.269-2.952-5.281-3.424-13.426 13.445-21.553 30.977-21.553 50.158 0 25.66 64.945 35.768 116.12 30.327z" fill="url(#SVGID_24_)"/><g><path d="m262.44 206.821c-3.747-4.905-11.133-4.905-14.88 0-10.883 14.245-24.867 25.742-40.698 34.154-26.464 14.062-44.12 39.371-44.12 68.256 0 44.181 184.515 44.181 184.515 0 0-28.885-17.656-54.194-44.12-68.256-15.83-8.412-29.814-19.91-40.697-34.154z" fill="url(#SVGID_25_)"/><path d="m347.257 309.231c0 19.779-36.971 30.7-77.82 32.77-30.632-9.594-52.848-38.193-52.848-71.986 0-15.208 4.501-29.36 12.247-41.205 2.468-3.774 5.423-7.197 8.601-10.396 1.548-1.559 3.053-3.161 4.51-4.806 1.957-2.188 3.827-4.451 5.61-6.788 2.275-2.98 5.891-4.152 9.22-3.503 2.157.405 4.189 1.571 5.666 3.503 10.878 14.244 24.866 25.745 40.693 34.154 26.468 14.062 44.121 39.371 44.121 68.257z" fill="url(#SVGID_26_)"/><path d="m303.136 240.973c-15.827-8.409-29.815-19.91-40.693-34.154-1.477-1.932-3.51-3.098-5.666-3.503-.03-.006-.061-.012-.091-.017-4.355-.803-8.517 2.311-9.129 6.697-.64 4.586-.971 9.27-.971 14.032 0 52.675 40.458 95.894 91.993 100.296 5.507-4.272 8.68-9.302 8.68-15.093-.002-28.886-17.655-54.195-44.123-68.258z" fill="url(#SVGID_27_)"/><path d="m303.136 240.973c-15.827-8.409-29.815-19.91-40.693-34.154-1.477-1.932-3.51-3.098-5.666-3.503-.03-.006-.061-.012-.091-.017-.016-.003-.031-.006-.047-.008-2.218-.395-3.959 1.872-3.144 3.972 11.46 29.534 39.777 50.658 73.141 51.563-6.597-7.04-14.541-13.092-23.5-17.853z" fill="url(#SVGID_28_)"/><g fill="#fff"><path d="m295.678 266.628c-.29 2.026 1.117 3.903 3.143 4.193s3.903-1.117 4.193-3.143-1.117-3.903-3.143-4.193c-2.025-.29-3.903 1.118-4.193 3.143z"/><path d="m306.619 261.102c1.599.229 3.081-.882 3.31-2.481s-.882-3.081-2.481-3.31-3.081.882-3.31 2.481.882 3.081 2.481 3.31z"/><path d="m298.427 247.841c.964.138 1.858-.532 1.996-1.496s-.532-1.858-1.496-1.996-1.858.532-1.996 1.496c-.138.965.532 1.858 1.496 1.996z"/><path d="m272.984 251.826c1.944-.639 3.003-2.732 2.364-4.677-.639-1.944-2.732-3.003-4.677-2.364-1.944.639-3.003 2.732-2.364 4.677.639 1.944 2.733 3.002 4.677 2.364z"/><path d="m263.724 283.018c1.535-.504 2.37-2.157 1.866-3.692s-2.157-2.37-3.692-1.866-2.37 2.157-1.866 3.692c.505 1.534 2.158 2.37 3.692 1.866z"/><path d="m288.917 272.766c.925-.304 1.429-1.301 1.125-2.226s-1.301-1.429-2.226-1.125-1.429 1.301-1.125 2.226 1.301 1.429 2.226 1.125z"/><path d="m289.245 256.501c1.273-.815 1.645-2.509.829-3.782-.815-1.273-2.509-1.645-3.782-.829-1.273.815-1.645 2.509-.829 3.782.815 1.273 2.509 1.644 3.782.829z"/><path d="m288.951 264.732c1.005-.644 1.299-1.981.655-2.986s-1.981-1.299-2.986-.655-1.299 1.981-.655 2.986 1.981 1.298 2.986.655z"/><path d="m295.786 257.775c-.606.388-.783 1.194-.395 1.8s1.194.783 1.8.395.783-1.194.395-1.8-1.194-.783-1.8-.395z"/></g><path d="m303.138 240.975c-15.83-8.412-29.815-19.909-40.698-34.154-3.747-4.905-11.133-4.905-14.88 0-.165.215-.337.424-.503.639 2.811 2.102 5.687 4.09 8.628 5.951 27.507 17.403 45.859 48.723 45.859 84.47 0 26.256-44.225 39.901-90.201 40.94 54.667 9.591 135.914-.272 135.914-29.589 0-28.886-17.655-54.195-44.119-68.257z" fill="url(#SVGID_29_)"/></g></g><g><path d="m193.104 155.402c2.602 3.406 5.39 6.648 8.344 9.722 35.078-2.301 72.027-2.301 107.105 0 2.954-3.073 5.741-6.316 8.344-9.722.3-.393.633-.741.977-1.068-41.06-3.273-84.688-3.273-125.747 0 .344.328.676.675.977 1.068z" fill="url(#SVGID_30_)"/><path d="m331.257 155.529c3.449 4.5 7.226 8.708 11.278 12.623 75.774 8.657 135.534 29.132 135.534 61.43 0 88.249-446.138 88.249-446.138 0 0-32.298 59.76-52.773 135.534-61.43 4.052-3.915 7.829-8.123 11.278-12.623-91.374 9.016-166.743 34.742-166.743 77.187 0 107.785 486 107.785 486 0 0-42.445-75.369-68.171-166.743-77.187z" fill="url(#SVGID_31_)"/></g><g><path d="m193.104 155.402c2.602 3.406 5.39 6.648 8.344 9.722 35.078-2.301 72.027-2.301 107.105 0 2.954-3.073 5.741-6.316 8.344-9.722.3-.393.633-.741.977-1.068-41.06-3.273-84.688-3.273-125.747 0 .344.328.676.675.977 1.068z" fill="url(#SVGID_30_)"/><path d="m331.257 155.529c3.449 4.5 7.226 8.708 11.278 12.623 75.774 8.657 135.534 29.132 135.534 61.43 0 88.249-446.138 88.249-446.138 0 0-32.298 59.76-52.773 135.534-61.43 4.052-3.915 7.829-8.123 11.278-12.623-91.374 9.016-166.743 34.742-166.743 77.187 0 107.785 486 107.785 486 0 0-42.445-75.369-68.171-166.743-77.187z" fill="url(#SVGID_31_)"/></g><g><path d="m12.358 232.72h-.358v39.1c0 107.78 486 107.78 486 0v-39.1h-.358c-14.569 101.112-470.715 101.112-485.284 0z" fill="url(#SVGID_34_)"/></g></g><g><path d="m326.574 87.438c-1.202-3.189 2.101-6.172 4.941-4.477 10.036 5.989 24.769 18.313 24.769 39.052 0 31.451-36.102 34.416-36.102 57.713 0 11.956 1.509 20.212 2.978 25.418.85 3.011-2.086 5.664-4.79 4.321-8.995-4.465-22.83-15.361-22.83-40.142 0-36.717 35.802-36.171 35.802-56.246.001-10.484-2.438-19.458-4.768-25.639z" fill="url(#SVGID_35_)"/><path d="m270.023 2.032c-.784-1.404 1.314-2.684 2.72-1.664 9.536 6.92 25.663 21.55 25.663 41.343 0 28.101-30.522 36.056-34.589 57.969-3.29 17.726 4.25 34.98 7.707 41.682.6 1.163-.781 2.342-2.211 1.893-10.517-3.305-38.81-15.553-34.585-50.839 4.093-34.183 34.71-32.622 40.143-54.739 3.903-15.88-.906-28.586-4.848-35.645z" fill="url(#SVGID_36_)"/><path d="m171.742 94.909c-1.072-2.631 1.174-5.093 3.36-3.694 7.722 4.942 19.268 15.111 20.503 32.225 1.873 25.952-24.445 28.399-23.057 47.623.712 9.865 2.311 16.678 3.699 20.974.803 2.484-1.193 4.674-3.258 3.566-6.867-3.684-17.669-12.675-19.145-33.124-2.187-30.298 24.12-29.847 22.924-46.413-.624-8.651-2.948-16.056-5.026-21.157z" fill="url(#SVGID_37_)"/></g></g></svg>