<svg id="Capa_1" enable-background="new 0 0 510 510" height="512" viewBox="0 0 510 510" width="512" xmlns="http://www.w3.org/2000/svg" xmlns:xlink="http://www.w3.org/1999/xlink"><linearGradient id="lg1"><stop offset="0" stop-color="#faa68e"/><stop offset=".2061" stop-color="#fba682"/><stop offset=".5808" stop-color="#fda861"/><stop offset="1" stop-color="#ffa936"/></linearGradient><linearGradient id="SVGID_1_" gradientTransform="matrix(.707 -.707 .707 .707 -272.986 -116.4)" gradientUnits="userSpaceOnUse" x1="110.723" x2="110.723" xlink:href="#lg1" y1="488.035" y2="547.092"/><linearGradient id="lg2"><stop offset="0" stop-color="#f82814" stop-opacity="0"/><stop offset=".2454" stop-color="#f12817" stop-opacity=".245"/><stop offset=".6052" stop-color="#dd2820" stop-opacity=".605"/><stop offset="1" stop-color="#c0272d"/></linearGradient><linearGradient id="SVGID_2_" gradientTransform="matrix(-.773 .634 -.634 -.773 -81.385 1039.797)" gradientUnits="userSpaceOnUse" x1="-874.248" x2="-850.908" xlink:href="#lg2" y1="534.023" y2="566.382"/><linearGradient id="SVGID_3_" gradientTransform="matrix(-.773 .634 -.634 -.773 -81.385 1039.797)" gradientUnits="userSpaceOnUse" x1="-858.241" x2="-839.815" xlink:href="#lg2" y1="513.588" y2="539.133"/><linearGradient id="SVGID_4_" gradientTransform="matrix(-.773 .634 -.634 -.773 -81.385 1039.797)" gradientUnits="userSpaceOnUse" x1="-885.158" x2="-874.049" xlink:href="#lg2" y1="512.873" y2="528.274"/><linearGradient id="SVGID_5_" gradientTransform="matrix(-.988 -.154 .154 -.988 -531.135 823.815)" gradientUnits="userSpaceOnUse" x1="-688.071" x2="-670.824" xlink:href="#lg2" y1="887.813" y2="911.723"/><linearGradient id="SVGID_6_" gradientTransform="matrix(-.988 -.154 .154 -.988 -531.135 823.815)" gradientUnits="userSpaceOnUse" x1="-676.243" x2="-662.627" xlink:href="#lg2" y1="872.712" y2="891.589"/><linearGradient id="SVGID_7_" gradientTransform="matrix(-.988 -.154 .154 -.988 -531.135 823.815)" gradientUnits="userSpaceOnUse" x1="-696.133" x2="-687.924" xlink:href="#lg2" y1="872.184" y2="883.564"/><linearGradient id="lg3"><stop offset="0" stop-color="#bada00"/><stop offset=".2269" stop-color="#b0ce00"/><stop offset=".6378" stop-color="#95ae00"/><stop offset="1" stop-color="#798c00"/></linearGradient><linearGradient id="SVGID_8_" gradientTransform="matrix(.707 -.707 .707 .707 -272.986 -116.4)" gradientUnits="userSpaceOnUse" x1="110.819" x2="110.819" xlink:href="#lg3" y1="544.372" y2="605.549"/><linearGradient id="SVGID_9_" gradientTransform="matrix(.707 -.707 .707 .707 -272.986 -116.4)" gradientUnits="userSpaceOnUse" x1="110.723" x2="110.723" y1="598.641" y2="709.191"><stop offset="0" stop-color="#ff6359"/><stop offset=".2243" stop-color="#fe5b50"/><stop offset=".5952" stop-color="#fc4637"/><stop offset="1" stop-color="#f82814"/></linearGradient><linearGradient id="SVGID_10_" gradientTransform="matrix(.707 -.707 .707 .707 -272.986 -116.4)" gradientUnits="userSpaceOnUse" x1="145.311" x2="134.477" y1="706.3" y2="596.289"><stop offset="0" stop-color="#f82814" stop-opacity="0"/><stop offset="1" stop-color="#c0272d"/></linearGradient><linearGradient id="SVGID_11_" gradientTransform="matrix(.707 -.707 .707 .707 -272.986 -116.4)" gradientUnits="userSpaceOnUse" x1="110.819" x2="110.819" xlink:href="#lg3" y1="656.102" y2="697.725"/><linearGradient id="SVGID_12_" gradientTransform="matrix(.707 -.707 .707 .707 -272.986 -116.4)" gradientUnits="userSpaceOnUse" x1="108.946" x2="150.552" xlink:href="#lg1" y1="672.684" y2="837.218"/><linearGradient id="SVGID_13_" gradientTransform="matrix(-.999 -.055 .055 -.999 -781.616 901.294)" gradientUnits="userSpaceOnUse" x1="-909.77" x2="-886.429" xlink:href="#lg2" y1="491.408" y2="523.767"/><linearGradient id="SVGID_14_" gradientTransform="matrix(-.999 -.055 .055 -.999 -781.616 901.294)" gradientUnits="userSpaceOnUse" x1="-893.763" x2="-875.337" xlink:href="#lg2" y1="470.973" y2="496.518"/><linearGradient id="SVGID_15_" gradientTransform="matrix(-.999 -.055 .055 -.999 -781.616 901.294)" gradientUnits="userSpaceOnUse" x1="-920.68" x2="-909.571" xlink:href="#lg2" y1="470.258" y2="485.659"/><linearGradient id="SVGID_16_" gradientTransform="matrix(-.999 -.055 .055 -.999 -781.616 901.294)" gradientUnits="userSpaceOnUse" x1="-1207.071" x2="-1183.731" xlink:href="#lg2" y1="801.473" y2="833.832"/><linearGradient id="SVGID_17_" gradientTransform="matrix(-.999 -.055 .055 -.999 -781.616 901.294)" gradientUnits="userSpaceOnUse" x1="-1191.064" x2="-1172.638" xlink:href="#lg2" y1="781.038" y2="806.584"/><linearGradient id="SVGID_18_" gradientTransform="matrix(-.999 -.055 .055 -.999 -781.616 901.294)" gradientUnits="userSpaceOnUse" x1="-1217.981" x2="-1206.872" xlink:href="#lg2" y1="780.323" y2="795.724"/><linearGradient id="SVGID_19_" gradientTransform="matrix(-.625 -.781 .781 -.625 -967.273 438.201)" gradientUnits="userSpaceOnUse" x1="-743.516" x2="-726.268" xlink:href="#lg2" y1="885.874" y2="909.785"/><linearGradient id="SVGID_20_" gradientTransform="matrix(-.625 -.781 .781 -.625 -967.273 438.201)" gradientUnits="userSpaceOnUse" x1="-731.687" x2="-718.072" xlink:href="#lg2" y1="870.773" y2="889.65"/><linearGradient id="SVGID_21_" gradientTransform="matrix(-.625 -.781 .781 -.625 -967.273 438.201)" gradientUnits="userSpaceOnUse" x1="-751.577" x2="-743.368" xlink:href="#lg2" y1="870.245" y2="881.625"/><linearGradient id="SVGID_22_" gradientTransform="matrix(.707 -.707 .707 .707 -272.986 -116.4)" gradientUnits="userSpaceOnUse" x1="110.723" x2="110.723" xlink:href="#lg2" y1="739.589" y2="828.568"/><linearGradient id="SVGID_23_" gradientTransform="matrix(.707 -.707 .707 .707 -272.986 -116.4)" gradientUnits="userSpaceOnUse" x1="106.043" x2="106.043" y1="559.133" y2="633.889"><stop offset="0" stop-color="#ffd945"/><stop offset=".3043" stop-color="#ffcd3e"/><stop offset=".8558" stop-color="#ffad2b"/><stop offset="1" stop-color="#ffa325"/></linearGradient><g><path d="m305.16 7.426c-50.159 26.527-109.995 71.788-167.97 129.763s-103.236 117.812-129.764 167.971c-17.681 33.433-2.962 84.772 35.355 123.088 13.082 13.082 31.122 13.846 35.72 1.427 20.678-55.855 73.481-131.755 146.45-204.724s148.868-125.772 204.724-146.451c12.419-4.598 11.655-22.638-1.427-35.72-38.317-38.316-89.656-53.035-123.088-35.354z" fill="url(#SVGID_1_)"/><g opacity=".6"><g><circle cx="243.746" cy="69.264" fill="url(#SVGID_2_)" r="8.429"/><circle cx="246.934" cy="95.909" fill="url(#SVGID_3_)" r="6.655"/><circle cx="272.092" cy="80.428" fill="url(#SVGID_4_)" r="4.012"/></g><g><circle cx="280.897" cy="43.835" fill="url(#SVGID_5_)" r="6.229"/><circle cx="267.794" cy="58.718" fill="url(#SVGID_6_)" r="4.917"/><circle cx="288.714" cy="64.946" fill="url(#SVGID_7_)" r="2.965"/></g></g><path d="m31.401 399.696c4.536-11.1 6.419-23.639 5.223-36.893l-.128-1.421c-2.601-28.818 11.97-52.206 37.315-59.894l.019-.006c21.651-6.568 35.709-24.682 37.502-48.323l.171-2.249c1.977-26.068 19.022-45.089 44.25-49.382l1.928-.328c23.17-3.943 39.585-20.354 43.532-43.523l.331-1.941c4.298-25.227 23.322-42.269 49.392-44.244l2.727-.207c23.509-1.781 41.469-15.85 47.829-37.468 7.454-25.337 30.686-39.956 59.379-37.364l1.93.174c13.253 1.197 25.792-.686 36.892-5.221 15.506-6.336 97.472 4.945-132.937 235.354s-241.505 147.986-235.355 132.936z" fill="url(#SVGID_8_)"/><path d="m467.559 27.206c-33.359-33.359-81.804-33.988-98.262-1.159-30.639 61.114-81.443 130.382-147.156 196.094s-134.981 116.517-196.094 147.156c-32.829 16.459-32.2 64.904 1.159 98.263 22.277 22.277 52.999 31.102 75.932 21.682 67.666-27.793 148.995-84.093 225.503-160.601s132.807-157.837 160.601-225.503c9.419-22.933.595-53.655-21.683-75.932z" fill="url(#SVGID_9_)"/><path d="m489.242 103.138c8.287-20.177 2.447-46.38-14.246-67.559l-92.375.045c-.105-.016-.205-.043-.311-.057-8.559-1.121-16.403 4.909-17.524 13.465l-5.183 39.574c-1.407 10.727-9.014 17.17-20.35 17.243l-18.477.118c-15.609 22.089-33.229 44.543-52.681 66.925l.314 11.311c.344 12.407-6.842 20.642-18.745 21.5l-12.322.887c-4.977 5.201-10.037 10.388-15.2 15.551-18.649 18.649-37.584 36.093-56.538 52.221l-4.959 22.445c-1.124 5.085-3.823 9.12-7.791 11.74l-30.105.039c-19.682 14.7-39.159 27.847-58.134 39.326l-13.991 56.583c-2.071 8.377 3.041 16.849 11.419 18.921l155.553.201c36.771-26.437 74.459-58.388 111.046-94.976 76.507-76.508 132.806-157.837 160.6-225.503z" fill="url(#SVGID_10_)"/><path d="m89.752 458.048c6.632-9.003 11.92-18.139 15.339-26.777l.367-.926c7.435-18.782 24.822-39.354 44.527-52.682l.015-.01c16.833-11.386 32.187-28.204 40.959-44.867l.834-1.585c9.672-18.373 27.348-36.763 45.889-47.743l1.417-.839c17.029-10.084 33.443-26.497 43.529-43.526l.845-1.427c10.983-18.542 29.374-36.217 47.747-45.888l1.922-1.012c16.569-8.722 33.286-24.033 44.519-40.777 13.166-19.625 33.647-36.995 52.347-44.396l1.258-.498c8.638-3.418 17.773-8.705 26.776-15.337 12.577-9.265 64.758-27.768-165.651 202.641s-211.631 177.856-202.639 165.649z" fill="url(#SVGID_11_)"/><g><path d="m88.782 474.249c34.215 34.215 82.018 45.398 114.608 26.874 48.894-27.792 107.95-73.833 165.925-131.808s104.016-117.031 131.808-165.925c18.524-32.59 7.341-80.393-26.874-114.607-11.681-11.681-28.715-11.439-33.731.561-22.561 53.972-76.6 128.636-149.569 201.605s-147.633 127.007-201.606 149.569c-12 5.016-12.242 22.05-.561 33.731z" fill="url(#SVGID_12_)"/><g opacity=".6"><g><circle cx="146.918" cy="449.939" fill="url(#SVGID_13_)" r="8.429"/><circle cx="131.267" cy="471.736" fill="url(#SVGID_14_)" r="6.655"/><circle cx="160.274" cy="477.32" fill="url(#SVGID_15_)" r="4.012"/></g><g><circle cx="460.847" cy="156.72" fill="url(#SVGID_16_)" r="8.429"/><circle cx="445.196" cy="178.518" fill="url(#SVGID_17_)" r="6.655"/><circle cx="474.203" cy="184.102" fill="url(#SVGID_18_)" r="4.012"/></g><g><circle cx="191.489" cy="456.291" fill="url(#SVGID_19_)" r="6.229"/><circle cx="171.773" cy="458.411" fill="url(#SVGID_20_)" r="4.917"/><circle cx="182.989" cy="477.137" fill="url(#SVGID_21_)" r="2.965"/></g></g><path d="m121.473 498.125c28.116 14.319 58.832 16.12 81.917 2.998 48.894-27.792 107.95-73.833 165.925-131.808s104.016-117.031 131.808-165.925c13.122-23.085 11.321-53.802-2.998-81.917z" fill="url(#SVGID_22_)"/></g><path d="m284.834 222.235c-8.345 8.346-19.735 13.69-32.926 14.64l-31.685 2.281c-9.58.689-16.202 6.188-18.168 15.087l-10.894 49.306c-3.019 13.659-11.062 25.058-22.643 32.091-12.757 7.746-28.633 9.641-44.703 5.334-7.648-2.05-14.819-1.431-20.193 1.741-4.236 2.499-7.144 6.538-8.415 11.68l-14.244 57.602c-2.07 8.377-10.542 13.49-18.92 11.419-8.378-2.072-13.49-10.543-11.419-18.921l14.243-57.602c3.285-13.284 11.406-24.327 22.867-31.092 12.662-7.475 28.349-9.256 44.171-5.015 7.752 2.077 14.994 1.417 20.39-1.86 4.283-2.602 7.172-6.794 8.349-12.12l10.894-49.306c4.933-22.329 23.162-37.841 46.44-39.517l31.684-2.281c11.903-.857 19.089-9.093 18.745-21.5l-.68-24.54c-.411-14.821 4.625-28.429 14.182-38.316 9.452-9.822 22.78-15.279 37.422-15.371l19.92-.128c11.336-.073 18.943-6.516 20.35-17.243l5.183-39.574c1.121-8.556 8.966-14.585 17.524-13.465 8.557 1.121 14.585 8.967 13.465 17.524l-5.184 39.575c-3.405 25.992-24.435 44.266-51.139 44.435l-19.921.127c-6.258.039-11.517 2.115-15.149 5.838-3.72 3.849-5.592 9.289-5.413 15.731l.68 24.54c.432 15.547-5.151 29.235-14.813 38.9z" fill="url(#SVGID_23_)"/></g></svg>