<svg id="Capa_1" enable-background="new 0 0 510 510" height="512" viewBox="0 0 510 510" width="512" xmlns="http://www.w3.org/2000/svg" xmlns:xlink="http://www.w3.org/1999/xlink"><linearGradient id="lg1"><stop offset="0" stop-color="#bada00"/><stop offset=".2269" stop-color="#b0ce00"/><stop offset=".6378" stop-color="#95ae00"/><stop offset="1" stop-color="#798c00"/></linearGradient><linearGradient id="SVGID_1_" gradientTransform="matrix(.707 .707 -.707 .707 652.432 58.997)" gradientUnits="userSpaceOnUse" x1="-142.432" x2="-142.432" xlink:href="#lg1" y1="143.83" y2="254.543"/><linearGradient id="lg2"><stop offset="0" stop-color="#798c00" stop-opacity="0"/><stop offset=".6542" stop-color="#556100" stop-opacity=".654"/><stop offset="1" stop-color="#464f00"/></linearGradient><linearGradient id="SVGID_2_" gradientTransform="matrix(.707 .707 -.707 .707 652.432 58.997)" gradientUnits="userSpaceOnUse" x1="-120.253" x2="-138.115" xlink:href="#lg2" y1="186.693" y2="87.361"/><linearGradient id="SVGID_3_" gradientTransform="matrix(.707 .707 -.707 .707 652.432 58.997)" gradientUnits="userSpaceOnUse" x1="-115.897" x2="-176.024" xlink:href="#lg2" y1="261.655" y2="157.291"/><linearGradient id="SVGID_4_" gradientTransform="matrix(.707 .707 -.707 .707 652.432 58.997)" gradientUnits="userSpaceOnUse" x1="-149.363" x2="-71.139" y1="191.828" y2="270.052"><stop offset="0" stop-color="#ffd945"/><stop offset=".3043" stop-color="#ffcd3e"/><stop offset=".8558" stop-color="#ffad2b"/><stop offset="1" stop-color="#ffa325"/></linearGradient><linearGradient id="SVGID_5_" gradientTransform="matrix(.707 .707 -.707 .707 652.432 58.997)" gradientUnits="userSpaceOnUse" x1="-120.071" x2="-128.282" y1="232.133" y2="167.741"><stop offset="0" stop-color="#f82814" stop-opacity="0"/><stop offset="1" stop-color="#c0272d"/></linearGradient><linearGradient id="lg3"><stop offset="0" stop-color="#ff6359"/><stop offset=".2243" stop-color="#fe5b50"/><stop offset=".5952" stop-color="#fc4637"/><stop offset="1" stop-color="#f82814"/></linearGradient><linearGradient id="SVGID_6_" gradientTransform="matrix(.707 .707 -.707 .707 652.432 58.997)" gradientUnits="userSpaceOnUse" x1="-244.965" x2="-211.738" xlink:href="#lg3" y1="201.877" y2="269.746"/><linearGradient id="SVGID_7_" gradientTransform="matrix(.707 .707 -.707 .707 652.432 58.997)" gradientUnits="userSpaceOnUse" x1="-27.032" x2="-37.488" xlink:href="#lg3" y1="209.111" y2="231.765"/><linearGradient id="lg4"><stop offset="0" stop-color="#ffdecf"/><stop offset=".3791" stop-color="#fdc4b0"/><stop offset=".7655" stop-color="#fbae97"/><stop offset="1" stop-color="#faa68e"/></linearGradient><linearGradient id="SVGID_8_" gradientTransform="matrix(.707 .707 -.707 .707 652.432 58.997)" gradientUnits="userSpaceOnUse" x1="-177.751" x2="-144.522" xlink:href="#lg4" y1="182.837" y2="250.708"/><linearGradient id="SVGID_9_" gradientTransform="matrix(-.707 -.707 .707 -.707 149.82 1259.099)" gradientUnits="userSpaceOnUse" x1="625.837" x2="653.477" xlink:href="#lg4" y1="929.017" y2="985.473"/><linearGradient id="SVGID_10_" gradientTransform="matrix(.707 .707 -.707 .707 652.432 58.997)" gradientUnits="userSpaceOnUse" x1="-142.432" x2="-142.432" y1="216.15" y2="326.894"><stop offset="0" stop-color="#a57c52"/><stop offset=".1339" stop-color="#a26c4a"/><stop offset=".5155" stop-color="#994336"/><stop offset=".8174" stop-color="#942a2a"/><stop offset="1" stop-color="#922125"/></linearGradient><linearGradient id="SVGID_11_" gradientTransform="matrix(.707 .707 -.707 .707 652.432 58.997)" gradientUnits="userSpaceOnUse" x1="-123.702" x2="-258.712" y1="382.142" y2="247.132"><stop offset="0" stop-color="#42210b" stop-opacity="0"/><stop offset="1" stop-color="#42210b"/></linearGradient><linearGradient id="SVGID_12_" gradientTransform="matrix(.707 .707 -.707 .707 652.432 58.997)" gradientUnits="userSpaceOnUse" x1="-235.875" x2="-202.647" xlink:href="#lg4" y1="244.336" y2="312.206"/><linearGradient id="SVGID_13_" gradientTransform="matrix(-.707 -.707 .707 -.707 149.82 1259.099)" gradientUnits="userSpaceOnUse" x1="683.962" x2="711.602" xlink:href="#lg4" y1="867.519" y2="923.975"/><linearGradient id="SVGID_14_" gradientTransform="matrix(.707 .707 -.707 .707 652.432 58.997)" gradientUnits="userSpaceOnUse" x1="-111.41" x2="-92.532" xlink:href="#lg1" y1="262.381" y2="291.426"/><linearGradient id="SVGID_15_" gradientTransform="matrix(.707 .707 -.707 .707 652.432 58.997)" gradientUnits="userSpaceOnUse" x1="-303.031" x2=".352" y1="428.594" y2="491.333"><stop offset="0" stop-color="#faa68e"/><stop offset=".2061" stop-color="#fba682"/><stop offset=".5808" stop-color="#fda861"/><stop offset="1" stop-color="#ffa936"/></linearGradient><linearGradient id="lg5"><stop offset="0" stop-color="#f82814" stop-opacity="0"/><stop offset=".2454" stop-color="#f12817" stop-opacity=".245"/><stop offset=".6052" stop-color="#dd2820" stop-opacity=".605"/><stop offset="1" stop-color="#c0272d"/></linearGradient><linearGradient id="SVGID_16_" gradientTransform="matrix(.707 .707 -.707 .707 652.432 58.997)" gradientUnits="userSpaceOnUse" x1="-248.412" x2="9.811" xlink:href="#lg5" y1="463.71" y2="543.271"/><linearGradient id="SVGID_17_" gradientTransform="matrix(.707 .707 -.707 .707 652.432 58.997)" gradientUnits="userSpaceOnUse" x1="-142.432" x2="-142.432" xlink:href="#lg5" y1="633.664" y2="704.153"/><linearGradient id="SVGID_18_" gradientTransform="matrix(-.773 .634 -.634 -.773 1767.231 227.627)" gradientUnits="userSpaceOnUse" x1="1223.508" x2="1243.846" xlink:href="#lg5" y1="1041.678" y2="1069.873"/><linearGradient id="SVGID_19_" gradientTransform="matrix(-.773 .634 -.634 -.773 1767.231 227.627)" gradientUnits="userSpaceOnUse" x1="1237.456" x2="1253.511" xlink:href="#lg5" y1="1023.872" y2="1046.131"/><linearGradient id="SVGID_20_" gradientTransform="matrix(-.773 .634 -.634 -.773 1767.231 227.627)" gradientUnits="userSpaceOnUse" x1="1214.003" x2="1223.682" xlink:href="#lg5" y1="1023.249" y2="1036.669"/><linearGradient id="SVGID_21_" gradientTransform="matrix(-.988 -.154 .154 -.988 1546.002 849.712)" gradientUnits="userSpaceOnUse" x1="1446.815" x2="1461.843" xlink:href="#lg5" y1="452.677" y2="473.512"/><linearGradient id="SVGID_22_" gradientTransform="matrix(-.988 -.154 .154 -.988 1546.002 849.712)" gradientUnits="userSpaceOnUse" x1="1457.122" x2="1468.985" xlink:href="#lg5" y1="439.52" y2="455.968"/><linearGradient id="SVGID_23_" gradientTransform="matrix(-.988 -.154 .154 -.988 1546.002 849.712)" gradientUnits="userSpaceOnUse" x1="1439.791" x2="1446.944" xlink:href="#lg5" y1="439.06" y2="448.976"/><linearGradient id="SVGID_24_" gradientTransform="matrix(-.999 -.055 .055 -.999 1306.544 822.289)" gradientUnits="userSpaceOnUse" x1="1201.213" x2="1221.55" xlink:href="#lg5" y1="358.059" y2="386.254"/><linearGradient id="SVGID_25_" gradientTransform="matrix(-.999 -.055 .055 -.999 1306.544 822.289)" gradientUnits="userSpaceOnUse" x1="1215.16" x2="1231.215" xlink:href="#lg5" y1="340.253" y2="362.512"/><linearGradient id="SVGID_26_" gradientTransform="matrix(-.999 -.055 .055 -.999 1306.544 822.289)" gradientUnits="userSpaceOnUse" x1="1191.707" x2="1201.386" xlink:href="#lg5" y1="339.63" y2="353.05"/><linearGradient id="SVGID_27_" gradientTransform="matrix(-.999 -.055 .055 -.999 1306.544 822.289)" gradientUnits="userSpaceOnUse" x1="945.978" x2="966.315" xlink:href="#lg5" y1="490.223" y2="518.418"/><linearGradient id="SVGID_28_" gradientTransform="matrix(-.999 -.055 .055 -.999 1306.544 822.289)" gradientUnits="userSpaceOnUse" x1="959.925" x2="975.98" xlink:href="#lg5" y1="472.417" y2="494.675"/><linearGradient id="SVGID_29_" gradientTransform="matrix(-.999 -.055 .055 -.999 1306.544 822.289)" gradientUnits="userSpaceOnUse" x1="936.472" x2="946.151" xlink:href="#lg5" y1="471.794" y2="485.213"/><linearGradient id="SVGID_30_" gradientTransform="matrix(-.625 -.781 .781 -.625 723.151 1131.456)" gradientUnits="userSpaceOnUse" x1="922.451" x2="937.479" xlink:href="#lg5" y1="13.503" y2="34.337"/><linearGradient id="SVGID_31_" gradientTransform="matrix(-.625 -.781 .781 -.625 723.151 1131.456)" gradientUnits="userSpaceOnUse" x1="932.757" x2="944.621" xlink:href="#lg5" y1=".345" y2="16.793"/><linearGradient id="SVGID_32_" gradientTransform="matrix(-.625 -.781 .781 -.625 723.151 1131.456)" gradientUnits="userSpaceOnUse" x1="915.427" x2="922.58" xlink:href="#lg5" y1="-.115" y2="9.801"/><g><path d="m507.105 164.848c-1.646-5.229-1.908-11.309-.615-17.904l.188-.961c2.8-14.278-3.171-24.951-15.262-27.28-10.316-1.987-16.296-10.091-15.926-21.582l.043-1.333c.411-12.743-6.978-21.214-19.182-21.993l-.939-.06c-11.208-.715-18.425-7.934-19.138-19.143l-.059-.933c-.777-12.205-9.246-19.595-21.988-19.186l-1.099.035c-11.556.371-19.737-5.596-21.824-15.917l-.002-.009c-2.444-12.082-13.196-18.022-27.536-15.21l-.707.139c-6.595 1.293-12.675 1.03-17.904-.616-14.396-4.531-26.347-4.022-33.876 3.508l-132.764 132.762 192.32 192.32 132.762-132.762c7.529-7.529 8.039-19.479 3.508-33.875z" fill="url(#SVGID_1_)"/><path d="m343.707 50.459c-37.044 35.989 114.831 192.32 151.876 156.331 6.387-6.205 7.155-15.989 3.865-27.747-1.195-4.271-1.232-9.246.02-14.651l.134-.58c2.723-11.753-1.827-20.521-11.651-22.453l-.007-.001c-8.392-1.65-13.039-8.313-12.397-17.773l.061-.9c.708-10.431-5.096-17.322-15.069-17.889l-.762-.043c-9.16-.521-14.86-6.387-15.118-15.557l-.022-.768c-.28-9.985-7.002-15.985-17.45-15.577l-1.093.043c-9.422.368-15.884-4.482-17.209-12.914-1.553-9.883-10.119-14.711-21.895-12.339l-.792.16c-5.439 1.096-10.411.915-14.645-.402-11.657-3.63-21.459-3.145-27.846 3.06z" fill="url(#SVGID_2_)"/><path d="m440.721 118.653c.833-16.747-5.142-29.77-17.933-42.561-24.016-24.016-62.955-24.016-86.972 0-12.791 12.791-18.766 25.814-17.933 42.561v159.88l52.952 52.952 69.886-69.886z" fill="url(#SVGID_3_)"/><path d="m449.394 193.736c-37.92-20.285-68.983-51.347-89.267-89.267-3.38-6.319 1.198-13.961 8.365-13.961h69.221c14.162 0 25.642 11.48 25.642 25.642v69.221c-.001 7.167-7.642 11.745-13.961 8.365z" fill="url(#SVGID_4_)"/><path d="m440.721 118.653c.476-9.574-2.282-19.234-6.257-28.145h-65.973c-7.166 0-11.745 7.641-8.365 13.961 18.715 34.986 46.609 64.126 80.594 84.359z" fill="url(#SVGID_5_)"/><circle cx="318.312" cy="81.512" fill="url(#SVGID_6_)" r="61.497"/><path d="m467.15 240.565c-26.052 12.302-55.469 4.702-65.705-16.974s2.586-49.221 28.639-61.523c26.052-12.302 55.469-4.702 65.705 16.974s-2.587 49.221-28.639 61.523z" fill="url(#SVGID_7_)"/><g><path d="m422.788 72.092c-24.016-24.016-62.955-24.016-86.972 0s-24.016 62.955 0 86.972c24.016 24.016 62.955 24.016 86.972 0s24.016-62.955 0-86.972zm-71.101 71.101c-15.249-15.249-15.249-39.98 0-55.229s39.974-15.243 55.223.006 15.255 39.974.006 55.223-39.98 15.249-55.229 0z" fill="url(#SVGID_8_)"/><path d="m343.129 151.751c19.975 19.975 52.37 19.975 72.345 0 19.981-19.981 19.975-52.37 0-72.345-19.981-19.981-52.364-19.981-72.345 0-19.974 19.975-19.98 52.364 0 72.345zm63.788-63.787c15.249 15.249 15.249 39.98 0 55.229s-39.974 15.243-55.223-.006-15.255-39.974-.006-55.223c15.248-15.249 39.98-15.249 55.229 0z" fill="url(#SVGID_9_)"/></g><path d="m410.308 279.451 51.567-51.567c10.036-10.036 13.2-24.503 7.566-35.118-12.608-23.755-36.403-54.643-66.983-85.223s-61.468-54.376-85.223-66.983c-10.615-5.634-25.082-2.47-35.118 7.566l-51.567 51.567c-4.976 4.976-4.523 12.58.932 15.06 24.535 11.156 152.611 139.231 163.766 163.766 2.48 5.455 10.084 5.907 15.06.932z" fill="url(#SVGID_10_)"/><path d="m267.349 62.893-27.731 27.731c-3.916 7.889-6.021 16.442-6.34 25.051 19.149 10.722 81.158 70.119 122.865 115.03v-109.775c.801-16.712-5.179-33.688-17.941-46.45-19.171-19.173-47.845-23.023-70.853-11.587z" fill="url(#SVGID_11_)"/><g><path d="m338.202 74.478c-24.016-24.016-62.955-24.016-86.972 0s-24.016 62.955 0 86.972c24.016 24.016 62.955 24.016 86.972 0s24.016-62.955 0-86.972zm-71.101 71.101c-15.249-15.249-15.249-39.98 0-55.229s39.974-15.243 55.223.006 15.255 39.974.006 55.223-39.98 15.249-55.229 0z" fill="url(#SVGID_12_)"/><path d="m258.543 154.137c19.975 19.975 52.37 19.975 72.345 0 19.981-19.981 19.975-52.37 0-72.345-19.981-19.981-52.364-19.981-72.345 0-19.974 19.974-19.98 52.364 0 72.345zm63.788-63.787c15.249 15.249 15.249 39.98 0 55.229s-39.974 15.243-55.223-.006-15.255-39.974-.006-55.223c15.248-15.249 39.98-15.249 55.229 0z" fill="url(#SVGID_13_)"/></g><path d="m284.262 189.156c-8.376 47.297 182.251 81.056 190.627 33.759 1.444-8.155-3.031-15.907-11.465-22.91-3.064-2.544-5.649-6.251-7.521-10.988l-.201-.508c-4.069-10.3-11.88-14.372-20.003-10.427l-.006.003c-6.94 3.37-13.739.929-18.138-6.511l-.418-.708c-4.851-8.204-12.607-10.181-20.137-5.131l-.575.386c-6.916 4.638-14.07 3.372-18.973-3.357l-.411-.564c-5.339-7.327-13.303-8.133-20.676-2.092l-.771.632c-6.649 5.447-13.833 5.361-19.132-.229-6.21-6.552-14.91-5.467-22.236 2.774l-.493.554c-3.384 3.807-7.085 6.4-10.836 7.737-10.327 3.682-17.191 9.425-18.635 17.58z" fill="url(#SVGID_14_)"/><g><path d="m466.149 229.35c-39.736-39.736-96.121-52.665-146.698-38.801 13.865-50.577.935-106.963-38.801-146.698-5.159-5.159-13.522-5.159-18.681 0l-237.706 237.706c-30.889 30.889-32.506 80.503-3.58 113.236 14.078 15.931 29.438 32.284 45.838 48.685s32.754 31.76 48.685 45.839c32.734 28.926 82.348 27.309 113.236-3.58l237.706-237.706c5.16-5.159 5.16-13.522.001-18.681z" fill="url(#SVGID_15_)"/><path d="m280.65 43.851c-5.159-5.159-13.522-5.159-18.681 0l-237.705 237.705c-30.904 30.904-32.486 80.533-3.542 113.281 10.043 11.363 20.738 22.94 31.997 34.596l200.085-200.085c19.179-19.179 42.239-32.111 66.648-38.802 13.863-50.576.933-106.96-38.802-146.695z" fill="url(#SVGID_16_)"/><path d="m24.263 281.557c-30.889 30.889-32.506 80.503-3.58 113.236 14.078 15.931 29.438 32.284 45.839 48.685s32.754 31.76 48.685 45.839c32.734 28.926 82.348 27.309 113.236-3.58z" fill="url(#SVGID_17_)"/></g><g opacity=".6"><g><circle cx="149.82" cy="194.867" fill="url(#SVGID_18_)" r="7.345"/><circle cx="152.598" cy="218.083" fill="url(#SVGID_19_)" r="5.798"/><circle cx="174.519" cy="204.594" fill="url(#SVGID_20_)" r="3.496"/></g><g><circle cx="182.191" cy="172.71" fill="url(#SVGID_21_)" r="5.427"/><circle cx="170.774" cy="185.678" fill="url(#SVGID_22_)" r="4.285"/><circle cx="189.002" cy="191.104" fill="url(#SVGID_23_)" r="2.583"/></g></g><g><g opacity=".6"><g><circle cx="120.846" cy="389.193" fill="url(#SVGID_24_)" r="7.345"/><circle cx="107.209" cy="408.186" fill="url(#SVGID_25_)" r="5.798"/><circle cx="132.483" cy="413.051" fill="url(#SVGID_26_)" r="3.496"/></g><g><circle cx="382.974" cy="271.289" fill="url(#SVGID_27_)" r="7.345"/><circle cx="369.336" cy="290.282" fill="url(#SVGID_28_)" r="5.798"/><circle cx="394.611" cy="295.147" fill="url(#SVGID_29_)" r="3.496"/></g><g><circle cx="159.682" cy="394.728" fill="url(#SVGID_30_)" r="5.427"/><circle cx="142.503" cy="396.575" fill="url(#SVGID_31_)" r="4.285"/><circle cx="152.275" cy="412.891" fill="url(#SVGID_32_)" r="2.583"/></g></g></g></g></svg>