<svg id="Capa_1" enable-background="new 0 0 510 510" height="512" viewBox="0 0 510 510" width="512" xmlns="http://www.w3.org/2000/svg" xmlns:xlink="http://www.w3.org/1999/xlink"><linearGradient id="lg1"><stop offset="0" stop-color="#f8f6fb"/><stop offset="1" stop-color="#efdcfb"/></linearGradient><linearGradient id="SVGID_1_" gradientUnits="userSpaceOnUse" x1="255.95" x2="257.95" xlink:href="#lg1" y1="442.687" y2="475.687"/><linearGradient id="SVGID_2_" gradientUnits="userSpaceOnUse" x1="238.247" x2="277.534" xlink:href="#lg1" y1="331.575" y2="479.85"/><linearGradient id="SVGID_3_" gradientUnits="userSpaceOnUse" x1="265.969" x2="246.969" xlink:href="#lg1" y1="476.143" y2="324.143"/><linearGradient id="SVGID_4_" gradientUnits="userSpaceOnUse" x1="287.154" x2="257.154" y1="443.216" y2="217.216"><stop offset="0" stop-color="#efdcfb" stop-opacity="0"/><stop offset=".0287" stop-color="#e9d6f7" stop-opacity=".029"/><stop offset=".2203" stop-color="#c5b5de" stop-opacity=".22"/><stop offset=".4138" stop-color="#aa9bcb" stop-opacity=".414"/><stop offset=".6078" stop-color="#9688bd" stop-opacity=".608"/><stop offset=".8028" stop-color="#8a7db5" stop-opacity=".803"/><stop offset="1" stop-color="#8679b2"/></linearGradient><linearGradient id="lg2"><stop offset="0" stop-color="#ffdecf"/><stop offset=".3791" stop-color="#fdc4b0"/><stop offset=".7655" stop-color="#fbae97"/><stop offset="1" stop-color="#faa68e"/></linearGradient><linearGradient id="SVGID_5_" gradientUnits="userSpaceOnUse" x1="241.418" x2="273.269" xlink:href="#lg2" y1="319.784" y2="439.996"/><linearGradient id="lg3"><stop offset="0" stop-color="#f82814" stop-opacity="0"/><stop offset=".2454" stop-color="#f12817" stop-opacity=".245"/><stop offset=".6052" stop-color="#dd2820" stop-opacity=".605"/><stop offset="1" stop-color="#c0272d"/></linearGradient><linearGradient id="SVGID_6_" gradientTransform="matrix(-.999 -.055 .055 -.999 -1815.505 -191.203)" gradientUnits="userSpaceOnUse" x1="-2243.823" x2="-2221.675" xlink:href="#lg3" y1="-426.226" y2="-395.521"/><linearGradient id="SVGID_7_" gradientTransform="matrix(-.999 -.055 .055 -.999 -1815.505 -191.203)" gradientUnits="userSpaceOnUse" x1="-2230.854" x2="-2213.369" xlink:href="#lg3" y1="-446.61" y2="-422.37"/><linearGradient id="SVGID_8_" gradientTransform="matrix(-.999 -.055 .055 -.999 -1815.505 -191.203)" gradientUnits="userSpaceOnUse" x1="-2252.409" x2="-2241.868" xlink:href="#lg3" y1="-447.794" y2="-433.18"/><linearGradient id="SVGID_9_" gradientTransform="matrix(-.625 -.781 .781 -.625 -1416.163 -841.557)" gradientUnits="userSpaceOnUse" x1="-2092.996" x2="-2075.963" xlink:href="#lg3" y1="687.965" y2="711.579"/><linearGradient id="SVGID_10_" gradientTransform="matrix(-.625 -.781 .781 -.625 -1416.163 -841.557)" gradientUnits="userSpaceOnUse" x1="-2083.513" x2="-2070.067" xlink:href="#lg3" y1="675.758" y2="694.4"/><linearGradient id="SVGID_11_" gradientTransform="matrix(-.625 -.781 .781 -.625 -1416.163 -841.557)" gradientUnits="userSpaceOnUse" x1="-2102.099" x2="-2093.992" xlink:href="#lg3" y1="673.542" y2="684.781"/><linearGradient id="lg4"><stop offset="0" stop-color="#f82814" stop-opacity="0"/><stop offset=".2458" stop-color="#f32816" stop-opacity=".246"/><stop offset=".5506" stop-color="#e3281d" stop-opacity=".551"/><stop offset=".8853" stop-color="#ca2728" stop-opacity=".885"/><stop offset="1" stop-color="#c0272d"/></linearGradient><linearGradient id="SVGID_12_" gradientUnits="userSpaceOnUse" x1="255" x2="255" xlink:href="#lg4" y1="404" y2="447.345"/><linearGradient id="SVGID_13_" gradientUnits="userSpaceOnUse" x1="241.418" x2="273.269" xlink:href="#lg2" y1="282.197" y2="402.408"/><linearGradient id="SVGID_14_" gradientUnits="userSpaceOnUse" x1="255" x2="255" xlink:href="#lg4" y1="368.667" y2="406"/><linearGradient id="SVGID_15_" gradientTransform="matrix(-.999 -.055 .055 -.999 -1815.505 -191.203)" gradientUnits="userSpaceOnUse" x1="-1968.187" x2="-1949.825" xlink:href="#lg3" y1="-432.057" y2="-406.6"/><linearGradient id="SVGID_16_" gradientTransform="matrix(-.999 -.055 .055 -.999 -1815.505 -191.203)" gradientUnits="userSpaceOnUse" x1="-1955.207" x2="-1940.71" xlink:href="#lg3" y1="-447.936" y2="-427.839"/><linearGradient id="SVGID_17_" gradientTransform="matrix(-.999 -.055 .055 -.999 -1815.505 -191.203)" gradientUnits="userSpaceOnUse" x1="-1977.075" x2="-1968.335" xlink:href="#lg3" y1="-448.404" y2="-436.288"/><linearGradient id="SVGID_18_" gradientTransform="matrix(-.625 -.781 .781 -.625 -1416.163 -841.557)" gradientUnits="userSpaceOnUse" x1="-1913.373" x2="-1899.934" xlink:href="#lg3" y1="480.918" y2="499.548"/><linearGradient id="SVGID_19_" gradientTransform="matrix(-.625 -.781 .781 -.625 -1416.163 -841.557)" gradientUnits="userSpaceOnUse" x1="-1903.763" x2="-1893.155" xlink:href="#lg3" y1="468.669" y2="483.377"/><linearGradient id="SVGID_20_" gradientTransform="matrix(-.625 -.781 .781 -.625 -1416.163 -841.557)" gradientUnits="userSpaceOnUse" x1="-1919.445" x2="-1913.049" xlink:href="#lg3" y1="468.563" y2="477.431"/><linearGradient id="SVGID_21_" gradientUnits="userSpaceOnUse" x1="241.418" x2="273.269" xlink:href="#lg2" y1="244.609" y2="364.82"/><linearGradient id="SVGID_22_" gradientUnits="userSpaceOnUse" x1="255" x2="255" xlink:href="#lg4" y1="329.333" y2="376.005"/><linearGradient id="SVGID_23_" gradientTransform="matrix(-.999 -.055 .055 -.999 -1815.505 -191.203)" gradientUnits="userSpaceOnUse" x1="-2112.779" x2="-2094.417" xlink:href="#lg3" y1="-397.837" y2="-372.38"/><linearGradient id="SVGID_24_" gradientTransform="matrix(-.999 -.055 .055 -.999 -1815.505 -191.203)" gradientUnits="userSpaceOnUse" x1="-2099.799" x2="-2085.302" xlink:href="#lg3" y1="-413.716" y2="-393.619"/><linearGradient id="SVGID_25_" gradientTransform="matrix(-.999 -.055 .055 -.999 -1815.505 -191.203)" gradientUnits="userSpaceOnUse" x1="-2121.667" x2="-2112.928" xlink:href="#lg3" y1="-414.184" y2="-402.068"/><linearGradient id="SVGID_26_" gradientUnits="userSpaceOnUse" x1="241.418" x2="273.269" xlink:href="#lg2" y1="207.022" y2="327.233"/><linearGradient id="SVGID_27_" gradientUnits="userSpaceOnUse" x1="255" x2="255" xlink:href="#lg4" y1="288" y2="336.019"/><linearGradient id="SVGID_28_" gradientTransform="matrix(-.625 -.781 .781 -.625 -1416.163 -841.557)" gradientUnits="userSpaceOnUse" x1="-2007.202" x2="-1992.708" xlink:href="#lg3" y1="757.074" y2="777.168"/><linearGradient id="SVGID_29_" gradientTransform="matrix(-.625 -.781 .781 -.625 -1416.163 -841.557)" gradientUnits="userSpaceOnUse" x1="-1997.63" x2="-1986.188" xlink:href="#lg3" y1="744.838" y2="760.701"/><linearGradient id="SVGID_30_" gradientTransform="matrix(-.625 -.781 .781 -.625 -1416.163 -841.557)" gradientUnits="userSpaceOnUse" x1="-2014.17" x2="-2007.272" xlink:href="#lg3" y1="744.108" y2="753.672"/><linearGradient id="SVGID_31_" gradientUnits="userSpaceOnUse" x1="241.418" x2="273.269" xlink:href="#lg2" y1="169.434" y2="289.645"/><linearGradient id="SVGID_32_" gradientUnits="userSpaceOnUse" x1="255" x2="255" xlink:href="#lg4" y1="255.333" y2="295.335"/><linearGradient id="SVGID_33_" gradientUnits="userSpaceOnUse" x1="241.418" x2="273.269" xlink:href="#lg2" y1="131.846" y2="252.058"/><linearGradient id="SVGID_34_" gradientTransform="matrix(-.999 -.055 .055 -.999 -1815.505 -191.203)" gradientUnits="userSpaceOnUse" x1="-2233.471" x2="-2211.323" xlink:href="#lg3" y1="-238.574" y2="-207.868"/><linearGradient id="SVGID_35_" gradientTransform="matrix(-.999 -.055 .055 -.999 -1815.505 -191.203)" gradientUnits="userSpaceOnUse" x1="-2220.502" x2="-2203.017" xlink:href="#lg3" y1="-258.958" y2="-234.718"/><linearGradient id="SVGID_36_" gradientTransform="matrix(-.999 -.055 .055 -.999 -1815.505 -191.203)" gradientUnits="userSpaceOnUse" x1="-2242.057" x2="-2231.516" xlink:href="#lg3" y1="-260.142" y2="-245.528"/><linearGradient id="SVGID_37_" gradientTransform="matrix(-.625 -.781 .781 -.625 -1416.163 -841.557)" gradientUnits="userSpaceOnUse" x1="-1946.238" x2="-1929.204" xlink:href="#lg3" y1="805.364" y2="828.978"/><linearGradient id="SVGID_38_" gradientTransform="matrix(-.625 -.781 .781 -.625 -1416.163 -841.557)" gradientUnits="userSpaceOnUse" x1="-1936.755" x2="-1923.308" xlink:href="#lg3" y1="793.157" y2="811.799"/><linearGradient id="SVGID_39_" gradientTransform="matrix(-.625 -.781 .781 -.625 -1416.163 -841.557)" gradientUnits="userSpaceOnUse" x1="-1955.34" x2="-1947.233" xlink:href="#lg3" y1="790.941" y2="802.18"/><linearGradient id="SVGID_40_" gradientUnits="userSpaceOnUse" x1="255" x2="255" xlink:href="#lg4" y1="210.667" y2="263.334"/><linearGradient id="lg5"><stop offset="0" stop-color="#f82814" stop-opacity="0"/><stop offset=".2461" stop-color="#f12817" stop-opacity=".246"/><stop offset=".6105" stop-color="#dd2820" stop-opacity=".611"/><stop offset="1" stop-color="#c0272d"/></linearGradient><linearGradient id="SVGID_41_" gradientUnits="userSpaceOnUse" x1="308.371" x2="37.402" xlink:href="#lg5" y1="265.447" y2="57.071"/><linearGradient id="SVGID_42_" gradientUnits="userSpaceOnUse" x1="378.313" x2="175.646" xlink:href="#lg5" y1="298.813" y2="196.813"/><linearGradient id="SVGID_43_" gradientUnits="userSpaceOnUse" x1="392.078" x2="232.078" xlink:href="#lg5" y1="252.619" y2="149.952"/><linearGradient id="SVGID_44_" gradientUnits="userSpaceOnUse" x1="462.475" x2="401.808" xlink:href="#lg5" y1="223.73" y2="167.396"/><radialGradient id="SVGID_45_" cx="202" cy="92.139" gradientTransform="matrix(1 0 0 .705 0 27.154)" gradientUnits="userSpaceOnUse" r="264.017"><stop offset="0" stop-color="#ffd945"/><stop offset=".3126" stop-color="#ffd643"/><stop offset=".5593" stop-color="#ffcc3d"/><stop offset=".7826" stop-color="#fb3"/><stop offset=".9922" stop-color="#ffa426"/><stop offset="1" stop-color="#ffa325"/></radialGradient><linearGradient id="lg6"><stop offset="0" stop-color="#f82814" stop-opacity="0"/><stop offset="1" stop-color="#c0272d"/></linearGradient><linearGradient id="SVGID_46_" gradientUnits="userSpaceOnUse" x1="352.558" x2="223.891" xlink:href="#lg6" y1="157.887" y2="-121.446"/><linearGradient id="lg7"><stop offset="0" stop-color="#bada00"/><stop offset=".2269" stop-color="#b0ce00"/><stop offset=".6378" stop-color="#95ae00"/><stop offset="1" stop-color="#798c00"/></linearGradient><linearGradient id="SVGID_47_" gradientTransform="matrix(.707 -.707 .707 .707 242.229 -402.943)" gradientUnits="userSpaceOnUse" x1="-376.15" x2="-345.471" xlink:href="#lg7" y1="312.768" y2="330.664"/><linearGradient id="SVGID_48_" gradientTransform="matrix(.669 -.019 .032 1.121 -31.234 -84.78)" gradientUnits="userSpaceOnUse" x1="372.495" x2="403.174" xlink:href="#lg7" y1="130.948" y2="148.844"/><linearGradient id="SVGID_49_" gradientUnits="userSpaceOnUse" x1="251.136" x2="264.025" y1="76.332" y2="116.171"><stop offset="0" stop-color="#ffa936"/><stop offset=".4112" stop-color="#ff8548"/><stop offset=".7781" stop-color="#ff6c54"/><stop offset="1" stop-color="#ff6359"/></linearGradient><linearGradient id="SVGID_50_" gradientUnits="userSpaceOnUse" x1="248.834" x2="297.268" xlink:href="#lg6" y1="84.755" y2="148.032"/><linearGradient id="SVGID_51_" gradientUnits="userSpaceOnUse" x1="228.741" x2="568.741" xlink:href="#lg6" y1="195.57" y2="-452.43"/><g><path d="m255 443.641c-63.228 0-121.254-6.234-166.705-16.626 6.539 17.221 18.824 30.245 33.972 34.413 34.188 9.408 81.041 15.21 132.733 15.21s98.545-5.802 132.733-15.21c15.148-4.168 27.433-17.192 33.972-34.413-45.451 10.392-103.477 16.626-166.705 16.626z" fill="url(#SVGID_1_)"/><path d="m510 394.804c0 87.422-510 87.422-510 0s510-87.422 510 0z" fill="url(#SVGID_2_)"/><path d="m475 388.393c0 62.328-440 62.328-440 0s440-62.328 440 0z" fill="url(#SVGID_3_)"/><path d="m510 394.804c0-69.05-318.162-83.56-451.89-43.532.341.397.684.793 1.054 1.183-7.005 5.533-10.901 11.728-10.901 18.59 0 6.416 3.404 12.248 9.567 17.503l62.967 62.967c150.811 21.962 389.203 3.061 389.203-56.711z" fill="url(#SVGID_4_)"/><g><path d="m461.736 371.046c0 70.876-413.472 70.876-413.472 0s413.472-70.876 413.472 0z" fill="url(#SVGID_5_)"/><g opacity=".6"><g><ellipse cx="394.865" cy="347.718" fill="url(#SVGID_6_)" rx="6.834" ry="8.429"/><ellipse cx="382.177" cy="369.516" fill="url(#SVGID_7_)" rx="5.395" ry="6.655"/><ellipse cx="405.693" cy="375.1" fill="url(#SVGID_8_)" rx="3.253" ry="4.012"/></g><g><ellipse cx="431" cy="354.071" fill="url(#SVGID_9_)" rx="5.05" ry="6.229"/><ellipse cx="415.016" cy="356.19" fill="url(#SVGID_10_)" rx="3.987" ry="4.917"/><ellipse cx="424.109" cy="374.916" fill="url(#SVGID_11_)" rx="2.403" ry="2.965"/></g></g><path d="m461.736 371.046c0-16.261-21.773-28.788-55.315-37.588h-302.843c-33.541 8.799-55.315 21.327-55.315 37.587.001 70.877 413.473 70.877 413.473.001z" fill="url(#SVGID_12_)"/></g><g><path d="m461.736 333.459c0 70.876-413.472 70.876-413.472 0s413.472-70.876 413.472 0z" fill="url(#SVGID_13_)"/><path d="m461.736 333.459c0-16.261-21.773-28.788-55.315-37.588h-302.843c-33.541 8.799-55.315 21.327-55.315 37.587.001 70.877 413.473 70.877 413.473.001z" fill="url(#SVGID_14_)"/><g opacity=".6"><g><ellipse cx="120.45" cy="340.11" fill="url(#SVGID_15_)" rx="6.834" ry="6.547"/><ellipse cx="107.761" cy="357.04" fill="url(#SVGID_16_)" rx="5.395" ry="5.168"/><ellipse cx="131.278" cy="361.377" fill="url(#SVGID_17_)" rx="3.253" ry="3.116"/></g><g><ellipse cx="156.584" cy="345.044" fill="url(#SVGID_18_)" rx="5.05" ry="4.838"/><ellipse cx="140.6" cy="346.69" fill="url(#SVGID_19_)" rx="3.987" ry="3.819"/><ellipse cx="149.693" cy="361.234" fill="url(#SVGID_20_)" rx="2.403" ry="2.302"/></g></g></g><g><path d="m461.736 295.871c0 70.876-413.472 70.876-413.472 0s413.472-70.876 413.472 0z" fill="url(#SVGID_21_)"/><path d="m461.736 295.871c0-16.261-21.773-28.788-55.315-37.588h-302.843c-33.541 8.799-55.315 21.327-55.315 37.587.001 70.877 413.473 70.877 413.473.001z" fill="url(#SVGID_22_)"/><g opacity=".6"><g><ellipse cx="266.707" cy="313.907" fill="url(#SVGID_23_)" rx="6.834" ry="6.547"/><ellipse cx="254.018" cy="330.836" fill="url(#SVGID_24_)" rx="5.395" ry="5.168"/><ellipse cx="277.535" cy="335.173" fill="url(#SVGID_25_)" rx="3.253" ry="3.116"/></g></g></g><g><path d="m461.736 258.284c0 70.876-413.472 70.876-413.472 0s413.472-70.876 413.472 0z" fill="url(#SVGID_26_)"/><path d="m461.736 258.284c0-16.261-21.773-28.788-55.315-37.588h-302.843c-33.541 8.799-55.315 21.327-55.315 37.587.001 70.877 413.473 70.877 413.473.001z" fill="url(#SVGID_27_)"/><g opacity=".6"><g><ellipse cx="431" cy="245.249" fill="url(#SVGID_28_)" rx="5.05" ry="5.249"/><ellipse cx="415.016" cy="247.035" fill="url(#SVGID_29_)" rx="3.987" ry="4.143"/><ellipse cx="424.109" cy="262.814" fill="url(#SVGID_30_)" rx="2.403" ry="2.498"/></g></g></g><g><path d="m461.736 220.696c0 70.876-413.472 70.876-413.472 0s413.472-70.876 413.472 0z" fill="url(#SVGID_31_)"/><path d="m461.736 220.696c0-16.261-21.773-28.788-55.315-37.588h-302.843c-33.541 8.799-55.315 21.327-55.315 37.587.001 70.877 413.473 70.877 413.473.001z" fill="url(#SVGID_32_)"/></g><g><path d="m461.736 183.109c0 70.876-413.472 70.876-413.472 0s413.472-70.877 413.472 0z" fill="url(#SVGID_33_)"/><g opacity=".6"><g><ellipse cx="394.865" cy="159.78" fill="url(#SVGID_34_)" rx="6.834" ry="8.429"/><ellipse cx="382.177" cy="181.578" fill="url(#SVGID_35_)" rx="5.395" ry="6.655"/><ellipse cx="405.693" cy="187.162" fill="url(#SVGID_36_)" rx="3.253" ry="4.012"/></g><g><ellipse cx="431" cy="166.133" fill="url(#SVGID_37_)" rx="5.05" ry="6.229"/><ellipse cx="415.016" cy="168.253" fill="url(#SVGID_38_)" rx="3.987" ry="4.917"/><ellipse cx="424.109" cy="186.978" fill="url(#SVGID_39_)" rx="2.403" ry="2.965"/></g></g><path d="m461.736 183.109c0-16.261-21.773-28.788-55.315-37.588h-302.843c-33.541 8.799-55.315 21.327-55.315 37.587.001 70.877 413.473 70.877 413.473.001z" fill="url(#SVGID_40_)"/></g><path d="m461.736 371.046c0-6.947-3.985-13.209-11.152-18.794 7.165-5.585 11.152-11.847 11.152-18.794s-3.985-13.209-11.152-18.793c7.165-5.585 11.152-11.847 11.152-18.794 0-6.947-3.985-13.209-11.152-18.793 7.165-5.585 11.152-11.847 11.152-18.794 0-6.946-3.985-13.209-11.152-18.793 7.165-5.585 11.152-11.847 11.152-18.794 0-6.947-3.985-13.209-11.152-18.793 7.165-5.585 11.152-11.847 11.152-18.794 0-58.439-281.088-68.691-379.736-30.76v105.75c0 6.068 3.012 11.423 7.614 14.684l151.31 151.31c107.84 1.681 220.812-16 220.812-53.048z" fill="url(#SVGID_41_)"/><path d="m461.736 183.109c0-39.572-128.884-57.046-242.736-52.429v220.579c0 5.999 2.942 11.293 7.447 14.563l57.899 57.899c92.713-3.044 177.39-20.599 177.39-52.674 0-6.946-3.985-13.209-11.152-18.793 7.165-5.585 11.152-11.847 11.152-18.794s-3.985-13.209-11.152-18.793c7.165-5.585 11.152-11.847 11.152-18.794 0-6.947-3.985-13.209-11.152-18.793 7.165-5.585 11.152-11.847 11.152-18.794 0-6.946-3.985-13.209-11.152-18.793 7.165-5.585 11.152-11.847 11.152-18.794 0-6.947-3.985-13.209-11.152-18.793 7.165-5.588 11.152-11.851 11.152-18.797z" fill="url(#SVGID_42_)"/><path d="m461.736 371.046c0-6.947-3.985-13.209-11.152-18.794 7.165-5.585 11.152-11.847 11.152-18.794s-3.985-13.209-11.152-18.793c7.165-5.585 11.152-11.847 11.152-18.794 0-6.947-3.985-13.209-11.152-18.793 7.165-5.585 11.152-11.847 11.152-18.794 0-6.946-3.985-13.209-11.152-18.793 7.165-5.585 11.152-11.847 11.152-18.794 0-6.947-3.985-13.209-11.152-18.793 7.165-5.585 11.152-11.847 11.152-18.794 0-32.776-88.416-50.392-183.476-52.853v114.563c0 5.774 2.73 10.9 6.958 14.194l142.792 142.79c20.991-8.071 33.726-18.322 33.726-30.758z" fill="url(#SVGID_43_)"/><path d="m461.736 258.283c0-6.946-3.985-13.209-11.152-18.793 7.165-5.585 11.152-11.847 11.152-18.794 0-6.947-3.985-13.209-11.152-18.793 7.165-5.585 11.152-11.847 11.152-18.794 0-17.736-25.898-31.03-64.72-39.889v56.586c0 5.439 2.423 10.303 6.236 13.604l55.277 55.277c2.092-3.28 3.207-6.746 3.207-10.404z" fill="url(#SVGID_44_)"/><path d="m461.736 145.521c0-70.876-413.472-70.876-413.472 0 0 10.27 8.69 19.05 23.54 26.343 6.207 3.048 10.196 9.302 10.196 16.218v70.016c0 9.941 8.059 18 18 18 9.941 0 18-8.059 18-18v-27.671c0-22.445 19.632-39.799 41.915-37.104 8.063.975 16.373 1.817 24.862 2.526 19.351 1.616 34.223 17.826 34.223 37.245v118.169c0 9.941 8.059 18 18 18 9.941 0 18-8.059 18-18v-112.124c0-6.422 5.206-11.629 11.629-11.629 6.422 0 11.629 5.206 11.629 11.629v5.675c0 9.941 8.059 18 18 18 9.941 0 18-8.059 18-18v-7.803c0-22.436 16.745-41.267 39.004-44.078 10.434-1.318 20.433-2.862 29.847-4.634 7.225-1.36 13.907 4.155 13.907 11.507 0 9.941 8.059 18 18 18 9.941 0 18-8.059 18-18v-.106c0-13.919 6.661-26.858 17.63-35.427 7.134-5.573 11.09-11.823 11.09-18.752z" fill="url(#SVGID_45_)"/><path d="m461.74 145.519c0 6.93-3.96 13.18-11.09 18.76-10.97 8.56-17.63 21.5-17.63 35.42v.11c0 .56-.03 1.12-.08 1.67-.39 4.3-2.31 8.17-5.19 11.06-3.26 3.26-7.76 5.27-12.73 5.27-4.98 0-9.48-2.01-12.73-5.27-3.26-3.26-5.27-7.76-5.27-12.73 0-7.36-6.69-12.87-13.91-11.51-9.42 1.77-19.41 3.32-29.85 4.63-13.76 1.74-25.42 9.6-32.31 20.66l-106.56-106.56c-3.78-3.05-5.93-6.87-5.66-11.67.03-.6.09-1.2.18-1.79 38.97-2.06 80.24-1.47 117.88 1.76 74.59 6.38 134.95 23.11 134.95 50.19z" fill="url(#SVGID_46_)"/><path d="m231.726 71.385c7.366 7.366 7.366 19.308 0 26.673-7.366 7.366-19.308 7.366-26.673 0-7.366-7.366-18.212-30.154-10.847-37.52s30.155 3.482 37.52 10.847z" fill="url(#SVGID_47_)"/><path d="m245.082 71.342c.331 11.676-5.053 21.302-12.026 21.5s-12.895-9.107-13.226-20.784 4.565-38.497 11.538-38.695c6.973-.197 13.383 26.302 13.714 37.979z" fill="url(#SVGID_48_)"/><g><path d="m270.66 53.212c-1.292-.044-2.584.086-3.838.401-9.851 2.469-56.602 15.549-58.09 41.749-.927 16.318 26.031 21.364 50.093 22.632 21.973 1.158 40.933-10.555 42.22-26.045 1.458-17.545-2.893-37.795-30.385-38.737z" fill="url(#SVGID_49_)"/><path d="m270.66 53.212c-1.292-.044-2.584.086-3.838.401-9.851 2.469-56.602 15.549-58.09 41.749-.927 16.318 26.031 21.364 50.093 22.632 21.972 1.158 39.327-63.84 11.835-64.782z" fill="url(#SVGID_50_)"/></g><path d="m53.989 131.765c-3.72 4.243-5.725 8.828-5.725 13.756 0 10.27 8.69 19.05 23.539 26.343 6.207 3.048 10.197 9.302 10.197 16.218v70.016c0 9.941 8.059 18 18 18s18-8.059 18-18v-27.671c0-22.445 19.632-39.799 41.915-37.104 8.063.975 16.373 1.817 24.862 2.526 19.351 1.616 34.223 17.826 34.223 37.245v118.169c0 9.941 8.059 18 18 18s18-8.059 18-18v-112.124c0-6.422 5.206-11.629 11.629-11.629s11.629 5.206 11.629 11.629v5.675c0 9.941 8.059 18 18 18s18-8.059 18-18v-7.803c0-22.436 16.745-41.267 39.004-44.078 10.434-1.318 20.433-2.862 29.847-4.634 7.225-1.36 13.907 4.155 13.907 11.507 0 9.941 8.059 18 18 18s18-8.059 18-18v-.106c0-13.919 6.661-26.858 17.63-35.427 7.134-5.573 11.09-11.824 11.09-18.753 0-4.928-2.005-9.513-5.725-13.756-46.063 52.534-355.959 52.534-402.022.001z" fill="url(#SVGID_51_)"/></g></svg>