<svg id="Capa_1" enable-background="new 0 0 510 510" height="512" viewBox="0 0 510 510" width="512" xmlns="http://www.w3.org/2000/svg" xmlns:xlink="http://www.w3.org/1999/xlink"><linearGradient id="lg1"><stop offset="0" stop-color="#f8f6fb"/><stop offset="1" stop-color="#efdcfb"/></linearGradient><linearGradient id="SVGID_1_" gradientUnits="userSpaceOnUse" x1="256.05" x2="257.917" xlink:href="#lg1" y1="454.007" y2="484.809"/><linearGradient id="SVGID_2_" gradientUnits="userSpaceOnUse" x1="216.306" x2="363.306" xlink:href="#lg1" y1="211.098" y2="430.098"/><linearGradient id="SVGID_3_" gradientUnits="userSpaceOnUse" x1="224.022" x2="260.022" xlink:href="#lg1" y1="115.975" y2="261.308"/><linearGradient id="lg2"><stop offset="0" stop-color="#efdcfb" stop-opacity="0"/><stop offset=".0287" stop-color="#e9d6f7" stop-opacity=".029"/><stop offset=".2203" stop-color="#c5b5de" stop-opacity=".22"/><stop offset=".4138" stop-color="#aa9bcb" stop-opacity=".414"/><stop offset=".6078" stop-color="#9688bd" stop-opacity=".608"/><stop offset=".8028" stop-color="#8a7db5" stop-opacity=".803"/><stop offset="1" stop-color="#8679b2"/></linearGradient><linearGradient id="SVGID_4_" gradientUnits="userSpaceOnUse" x1="255" x2="255" xlink:href="#lg2" y1="341.136" y2="-20.479"/><linearGradient id="SVGID_5_" gradientUnits="userSpaceOnUse" x1="255" x2="255" y1="228.136" y2="263.692"><stop offset="0" stop-color="#ffdecf"/><stop offset=".3791" stop-color="#fdc4b0"/><stop offset=".7655" stop-color="#fbae97"/><stop offset="1" stop-color="#faa68e"/></linearGradient><linearGradient id="lg3"><stop offset="0" stop-color="#ff6359"/><stop offset=".2243" stop-color="#fe5b50"/><stop offset=".5952" stop-color="#fc4637"/><stop offset="1" stop-color="#f82814"/></linearGradient><linearGradient id="SVGID_6_" gradientUnits="userSpaceOnUse" x1="342.193" x2="384.193" xlink:href="#lg3" y1="348.192" y2="376.192"/><linearGradient id="SVGID_7_" gradientUnits="userSpaceOnUse" x1="334.604" x2="373.22" xlink:href="#lg3" y1="386.672" y2="412.417"/><linearGradient id="lg4"><stop offset="0" stop-color="#ffd945"/><stop offset=".3043" stop-color="#ffcd3e"/><stop offset=".8558" stop-color="#ffad2b"/><stop offset="1" stop-color="#ffa325"/></linearGradient><linearGradient id="SVGID_8_" gradientUnits="userSpaceOnUse" x1="222.947" x2="264.28" xlink:href="#lg4" y1="191.921" y2="292.588"/><linearGradient id="lg5"><stop offset="0" stop-color="#f82814" stop-opacity="0"/><stop offset="1" stop-color="#c0272d"/></linearGradient><linearGradient id="SVGID_9_" gradientUnits="userSpaceOnUse" x1="245.709" x2="289.709" xlink:href="#lg5" y1="249.919" y2="-17.081"/><linearGradient id="SVGID_10_" gradientUnits="userSpaceOnUse" x1="226.701" x2="199.79" xlink:href="#lg5" y1="286.934" y2="52.43"/><linearGradient id="SVGID_11_" gradientUnits="userSpaceOnUse" x1="209.135" x2="247.135" xlink:href="#lg5" y1="265.814" y2="51.314"/><linearGradient id="SVGID_12_" gradientUnits="userSpaceOnUse" x1="196.477" x2="230.977" xlink:href="#lg5" y1="253.343" y2="152.343"/><linearGradient id="SVGID_13_" gradientUnits="userSpaceOnUse" x1="172.466" x2="167.133" xlink:href="#lg5" y1="280.966" y2="192.966"/><linearGradient id="SVGID_14_" gradientUnits="userSpaceOnUse" x1="92.392" x2="102.725" xlink:href="#lg4" y1="228.416" y2="241.749"/><linearGradient id="SVGID_15_" gradientUnits="userSpaceOnUse" x1="113.87" x2="134.537" xlink:href="#lg4" y1="206.4" y2="225.4"/><linearGradient id="SVGID_16_" gradientUnits="userSpaceOnUse" x1="144.03" x2="167.696" xlink:href="#lg4" y1="195.056" y2="220.389"/><linearGradient id="SVGID_17_" gradientUnits="userSpaceOnUse" x1="173.867" x2="204.867" xlink:href="#lg4" y1="176.506" y2="216.006"/><linearGradient id="SVGID_18_" gradientUnits="userSpaceOnUse" x1="190.733" x2="234.733" xlink:href="#lg4" y1="159.498" y2="219.498"/><linearGradient id="SVGID_19_" gradientUnits="userSpaceOnUse" x1="240.627" x2="266.627" xlink:href="#lg4" y1="177.559" y2="220.893"/><linearGradient id="lg6"><stop offset="0" stop-color="#bada00"/><stop offset=".2269" stop-color="#b0ce00"/><stop offset=".6378" stop-color="#95ae00"/><stop offset="1" stop-color="#798c00"/></linearGradient><linearGradient id="SVGID_20_" gradientUnits="userSpaceOnUse" x1="173.097" x2="193.435" xlink:href="#lg6" y1="179.261" y2="207.457"/><linearGradient id="SVGID_21_" gradientUnits="userSpaceOnUse" x1="155.894" x2="171.95" xlink:href="#lg6" y1="195.365" y2="217.624"/><linearGradient id="SVGID_22_" gradientUnits="userSpaceOnUse" x1="180.704" x2="190.384" xlink:href="#lg6" y1="210.228" y2="223.648"/><linearGradient id="SVGID_23_" gradientUnits="userSpaceOnUse" x1="211.379" x2="231.718" xlink:href="#lg6" y1="197.773" y2="225.971"/><linearGradient id="SVGID_24_" gradientUnits="userSpaceOnUse" x1="223.112" x2="239.169" xlink:href="#lg6" y1="178.719" y2="200.98"/><linearGradient id="SVGID_25_" gradientUnits="userSpaceOnUse" x1="199.433" x2="209.114" xlink:href="#lg6" y1="180.886" y2="194.306"/><linearGradient id="SVGID_26_" gradientUnits="userSpaceOnUse" x1="191.936" x2="206.967" xlink:href="#lg6" y1="211.51" y2="232.348"/><linearGradient id="SVGID_27_" gradientUnits="userSpaceOnUse" x1="196.5" x2="208.366" xlink:href="#lg6" y1="196.011" y2="212.462"/><linearGradient id="SVGID_28_" gradientUnits="userSpaceOnUse" x1="179.479" x2="186.633" xlink:href="#lg6" y1="202.371" y2="212.289"/><linearGradient id="SVGID_29_" gradientUnits="userSpaceOnUse" x1="253.764" x2="274.102" xlink:href="#lg6" y1="176.897" y2="205.093"/><linearGradient id="SVGID_30_" gradientUnits="userSpaceOnUse" x1="236.561" x2="252.617" xlink:href="#lg6" y1="193.001" y2="215.26"/><linearGradient id="SVGID_31_" gradientUnits="userSpaceOnUse" x1="261.371" x2="271.051" xlink:href="#lg6" y1="207.864" y2="221.284"/><linearGradient id="SVGID_32_" gradientUnits="userSpaceOnUse" x1="302.44" x2="322.779" xlink:href="#lg6" y1="191.076" y2="219.274"/><linearGradient id="SVGID_33_" gradientUnits="userSpaceOnUse" x1="295.112" x2="311.169" xlink:href="#lg6" y1="176.713" y2="198.973"/><linearGradient id="SVGID_34_" gradientUnits="userSpaceOnUse" x1="280.1" x2="289.78" xlink:href="#lg6" y1="178.522" y2="191.943"/><linearGradient id="SVGID_35_" gradientUnits="userSpaceOnUse" x1="272.603" x2="287.633" xlink:href="#lg6" y1="209.146" y2="229.984"/><linearGradient id="SVGID_36_" gradientUnits="userSpaceOnUse" x1="277.167" x2="289.032" xlink:href="#lg6" y1="193.648" y2="210.098"/><linearGradient id="SVGID_37_" gradientUnits="userSpaceOnUse" x1="260.146" x2="267.3" xlink:href="#lg6" y1="200.008" y2="209.925"/><linearGradient id="SVGID_38_" gradientTransform="matrix(0 1 -1 0 -1145.353 2658.979)" gradientUnits="userSpaceOnUse" x1="-2491.736" x2="-2478.481" xlink:href="#lg3" y1="-1397.362" y2="-1378.986"/><linearGradient id="SVGID_39_" gradientTransform="matrix(0 1 -1 0 -1145.353 2658.979)" gradientUnits="userSpaceOnUse" x1="-2485.779" x2="-2479.47" xlink:href="#lg3" y1="-1366.513" y2="-1357.767"/><linearGradient id="SVGID_40_" gradientTransform="matrix(0 1 -1 0 -1145.353 2658.979)" gradientUnits="userSpaceOnUse" x1="-2474.857" x2="-2468.548" xlink:href="#lg3" y1="-1394.175" y2="-1385.428"/><linearGradient id="SVGID_41_" gradientTransform="matrix(0 1 -1 0 -1145.353 2658.979)" gradientUnits="userSpaceOnUse" x1="-2486.271" x2="-2479.962" xlink:href="#lg3" y1="-1422.454" y2="-1413.707"/><linearGradient id="SVGID_42_" gradientTransform="matrix(0 1 -1 0 -1145.353 2658.979)" gradientUnits="userSpaceOnUse" x1="-2478.459" x2="-2468.662" xlink:href="#lg3" y1="-1365.677" y2="-1352.096"/><linearGradient id="SVGID_43_" gradientTransform="matrix(0 1 -1 0 -1145.353 2658.979)" gradientUnits="userSpaceOnUse" x1="-2487.965" x2="-2480.232" xlink:href="#lg3" y1="-1381.934" y2="-1371.212"/><linearGradient id="SVGID_44_" gradientTransform="matrix(0 1 -1 0 -1145.353 2658.979)" gradientUnits="userSpaceOnUse" x1="-2487.965" x2="-2480.232" xlink:href="#lg3" y1="-1408.665" y2="-1397.944"/><linearGradient id="SVGID_45_" gradientTransform="matrix(0 1 -1 0 -1145.353 2658.979)" gradientUnits="userSpaceOnUse" x1="-2480.398" x2="-2475.736" xlink:href="#lg3" y1="-1385.668" y2="-1379.204"/><linearGradient id="SVGID_46_" gradientUnits="userSpaceOnUse" x1="279.701" x2="188.201" xlink:href="#lg5" y1="295.794" y2="240.794"/><linearGradient id="SVGID_47_" gradientUnits="userSpaceOnUse" x1="208.115" x2="236.397" xlink:href="#lg1" y1="245.796" y2="276.157"/><linearGradient id="lg7"><stop offset="0" stop-color="#faa68e"/><stop offset=".3566" stop-color="#fb9d92"/><stop offset=".9447" stop-color="#ff849b"/><stop offset="1" stop-color="#ff819c"/></linearGradient><linearGradient id="SVGID_48_" gradientUnits="userSpaceOnUse" x1="205.353" x2="241.379" xlink:href="#lg7" y1="262.167" y2="262.167"/><linearGradient id="SVGID_49_" gradientUnits="userSpaceOnUse" x1="316.426" x2="236.926" xlink:href="#lg5" y1="257.85" y2="152.35"/><linearGradient id="SVGID_50_" gradientUnits="userSpaceOnUse" x1="258.827" x2="284.769" xlink:href="#lg1" y1="197.61" y2="225.46"/><linearGradient id="SVGID_51_" gradientTransform="matrix(.612 .791 -.791 .612 -108.385 1810.015)" gradientUnits="userSpaceOnUse" x1="-1045.246" x2="-1012.303" xlink:href="#lg7" y1="-1279.553" y2="-1279.553"/><linearGradient id="SVGID_52_" gradientUnits="userSpaceOnUse" x1="188.365" x2="122.202" xlink:href="#lg5" y1="265.392" y2="177.591"/><linearGradient id="SVGID_53_" gradientUnits="userSpaceOnUse" x1="139.777" x2="165.719" xlink:href="#lg1" y1="216.36" y2="244.21"/><linearGradient id="SVGID_54_" gradientTransform="matrix(.612 .791 -.791 .612 -108.385 1810.015)" gradientUnits="userSpaceOnUse" x1="-1103.315" x2="-1070.372" xlink:href="#lg7" y1="-1173.948" y2="-1173.948"/><linearGradient id="lg8"><stop offset="0" stop-color="#e87264" stop-opacity="0"/><stop offset="1" stop-color="#f8dfbe"/></linearGradient><linearGradient id="SVGID_55_" gradientUnits="userSpaceOnUse" x1="330.944" x2="413.944" xlink:href="#lg8" y1="154.735" y2="194.235"/><linearGradient id="SVGID_56_" gradientUnits="userSpaceOnUse" x1="232.899" x2="295.291" y1="85.27" y2="99.95"><stop offset="0" stop-color="#e87264" stop-opacity="0"/><stop offset=".1575" stop-color="#e97869" stop-opacity=".158"/><stop offset=".3778" stop-color="#ec8b78" stop-opacity=".378"/><stop offset=".6353" stop-color="#f0a991" stop-opacity=".635"/><stop offset=".9188" stop-color="#f6d2b3" stop-opacity=".919"/><stop offset="1" stop-color="#f8dfbe"/></linearGradient><linearGradient id="SVGID_57_" gradientUnits="userSpaceOnUse" x1="164.491" x2="209.824" xlink:href="#lg8" y1="153.062" y2="170.728"/><linearGradient id="SVGID_58_" gradientUnits="userSpaceOnUse" x1="421.328" x2="402.328" xlink:href="#lg2" y1="280.435" y2="241.935"/><linearGradient id="SVGID_59_" gradientUnits="userSpaceOnUse" x1="377.289" x2="383.289" xlink:href="#lg3" y1="246.797" y2="256.464"/><linearGradient id="SVGID_60_" gradientUnits="userSpaceOnUse" x1="388.914" x2="398.914" xlink:href="#lg3" y1="248.554" y2="264.554"/><g><path d="m255 453.312c-42.1 0-80.737-6.234-111-16.626 4.354 17.221 12.534 30.245 22.62 34.413 22.764 9.408 53.961 15.21 88.38 15.21s65.616-5.802 88.38-15.21c10.086-4.168 18.266-17.192 22.62-34.413-30.263 10.392-68.9 16.626-111 16.626z" fill="url(#SVGID_1_)"/><path d="m510 241.035c0-70.876-510-70.876-510 0s59.927 224.43 255 224.43 255-153.554 255-224.43z" fill="url(#SVGID_2_)"/><path d="m510 241.035c0 70.876-510 70.876-510 0s510-70.876 510 0z" fill="url(#SVGID_3_)"/><path d="m488.942 241.035c0 52.233-467.884 52.233-467.884 0s467.884-52.233 467.884 0z" fill="url(#SVGID_4_)"/><path d="m30.438 253.101c24.458 14.746 93.742 23.476 171.274 26.189 7.789.273 15.66-6.516 23.578-6.364 7.063.135 14.163 7.221 21.273 7.26 100.049.538 202.158-8.491 232.998-27.084-59.946-36.143-389.176-36.143-449.123-.001z" fill="url(#SVGID_5_)"/><path d="m4.47 278.458c2.078 9.387 4.927 19.272 8.621 29.396 71.302 46.376 412.516 46.376 483.818 0 3.694-10.124 6.543-20.009 8.621-29.396-.293-.349-.584-.698-.904-1.042-50.9 54.785-448.351 54.785-499.251 0-.32.344-.612.693-.905 1.042z" fill="url(#SVGID_6_)"/><path d="m21.058 327.098c3.083 6.638 6.533 13.304 10.384 19.933 91.289 34.511 355.826 34.511 447.115 0 3.852-6.629 7.302-13.295 10.384-19.933-82.728 40.43-385.154 40.43-467.883 0z" fill="url(#SVGID_7_)"/><g><path d="m418.69 269.986c-46.201 7.13-109.484 10.53-171.977 10.201-6.461-.034-12.914-7.108-19.339-7.222-8.599-.152-17.148 6.624-25.598 6.329-40.905-1.429-79.518-4.531-110.466-9.307 12.68-25.96 33.64-48.25 60.06-64.49 29.14-17.92 64.94-28.48 103.63-28.48s74.49 10.56 103.63 28.48c26.42 16.239 47.38 38.529 60.06 64.489z" fill="url(#SVGID_8_)"/><path d="m392.934 273.388c-14.551-24.781-35.984-46.121-62.158-62.21-16.712-10.277-35.361-18.411-55.392-23.933-35.736-9.851-73.956-6.885-107.367 9.171-5.757 2.767-11.314 5.8-16.647 9.079-26.42 16.24-47.38 38.53-60.06 64.49 80.228 12.382 211.958 13.515 301.624 3.403z" fill="url(#SVGID_9_)"/><path d="m358.954 276.545c-14.516-23.878-35.444-44.473-60.868-60.101-16.583-10.198-35.074-18.285-54.929-23.804-30.861-8.578-64.029-4.109-91.36 12.594-.143.087-.285.174-.427.262-26.42 16.24-47.38 38.53-60.06 64.49 70.588 10.893 181.046 13.079 267.644 6.559z" fill="url(#SVGID_10_)"/><path d="m323.947 278.653c-14.474-23.228-35.049-43.278-59.928-58.571-15.408-9.475-32.464-17.128-50.731-22.592-20.721-6.198-43.189-3.464-61.633 7.831-.095.058-.19.116-.284.175-26.42 16.24-47.38 38.53-60.06 64.49 30.95 4.776 69.564 7.878 110.471 9.307 7.754.271 15.591-4.519 23.473-4.368 7.186.137 14.409 5.224 21.643 5.262 25.976.132 52.088-.379 77.049-1.534z" fill="url(#SVGID_11_)"/><path d="m286.894 279.881c-13.981-19.616-32.461-36.649-54.24-50.036-16.712-10.277-35.361-18.411-55.392-23.933-1.012-.279-2.34-.481-3.861-.623-13.857-1.296-27.598 3.101-38.543 11.697-18.675 14.668-33.64 32.714-43.549 53 30.935 4.774 69.527 7.875 110.413 9.304 7.504.262 15.086-5.532 22.711-5.382 7.443.146 14.929 6.239 22.425 6.277 13.369.069 26.772-.032 40.036-.304z" fill="url(#SVGID_12_)"/><path d="m252.91 280.204c-12.689-15.088-28.184-28.348-45.851-39.208-16.712-10.277-35.361-18.411-55.392-23.933-.043-.012-.086-.024-.129-.035-8.19-2.25-16.944-.079-23.346 5.501-15.582 13.581-28.185 29.65-36.882 47.456 43.645 6.736 102.534 10.141 161.6 10.219z" fill="url(#SVGID_13_)"/><g><path d="m129.67 207.366c-27.16 8.93-49.5 28.5-61.54 54.6-.53 1.15-1.05 2.31-1.55 3.47 6.883 1.511 14.418 2.909 22.488 4.196 2.318-7.352 5.1-14.553 8.348-21.596 6.47-14.03 15.76-26.26 27.11-36.13 1.903-1.656 3.864-3.244 5.879-4.765-.243.077-.492.145-.735.225z" fill="url(#SVGID_14_)"/><path d="m178.63 182.306c-21.11 3.26-40.34 12.32-55.77 25.75-11.35 9.87-20.64 22.1-27.11 36.13-3.75 8.13-6.88 16.47-9.39 25.01 1.84.3 3.7.6 5.6.89 6.2.95 12.7 1.83 19.46 2.65.542-1.691 1.117-3.37 1.715-5.043 2.9-10.756 6.778-21.233 11.655-31.376 4.61-9.6 10.58-18.37 17.66-26.14 11.081-12.166 24.878-21.871 40.414-28.436-1.411.164-2.822.347-4.234.565z" fill="url(#SVGID_15_)"/><path d="m208.24 171.282c-27.14 4.206-51.33 17.129-68.79 36.056-7.08 7.671-13.05 16.33-17.66 25.808-6.13 12.588-10.71 25.689-13.71 39.215 1.1.138 2.22.267 3.34.405 6.97.829 14.21 1.59 21.69 2.271 2.59-10.742 6.34-21.168 11.22-31.198 2.782-5.712 19.326-30.679 22.469-34.561 15.771-19.544 37.456-33.323 61.811-39.47-6.748-.057-13.559.42-20.37 1.474z" fill="url(#SVGID_16_)"/><path d="m243.25 164.866c-31.38 1.05-60.18 15.67-79.38 39.77-2.87 3.59-5.52 7.4-7.94 11.41-10.95 18.14-18.59 37.93-22.81 58.99 8.28.78 16.85 1.46 25.63 2.06 1.823-8.298 4.268-16.353 7.318-24.138 1.881-5.443 4-10.809 6.382-16.082 5.84-12.9 13.96-24.31 23.81-33.81 16.05-15.47 36.71-25.87 59.56-29.37 11.432-1.757 22.86-1.697 33.937.027-14.402-6.282-30.234-9.407-46.507-8.857z" fill="url(#SVGID_17_)"/><path d="m253.82 171.132c-22.85 3.586-43.51 14.24-59.56 30.089-9.85 9.733-17.97 21.422-23.81 34.638-5.82 13.195-10.15 26.934-12.96 41.113.42.031.84.061 1.26.092 7.351.52 14.865.964 22.492 1.356 2.643-9.588 6.082-18.948 10.299-28.049.546-1.326 1.109-2.646 1.689-3.96 6.12-13.881 15.521-25.577 27.113-34.251 3.601-3.08 7.397-5.949 11.377-8.576 14.07-9.265 30.36-15.599 47.89-18.275 17.591-2.683 35.187-1.55 51.656 3.02-22.57-15.183-50.001-21.518-77.446-17.197z" fill="url(#SVGID_18_)"/><path d="m385.37 219.476c-4.41-4.75-9.18-9.08-14.23-12.96-25.55-19.7-58.55-28.24-91.53-23.11-17.53 2.73-33.82 9.19-47.89 18.64-16.76 11.28-30.36 26.81-39.09 45.34-4.73 10.04-8.53 20.4-11.4 31.03.5.03 1 .06 1.5.08 5.532.271 11.144.496 16.785.699 18.044-46.969 61.334-80.059 111.879-80.059 29.387 0 56.321 11.188 77.27 29.782.253-3.351-.826-6.79-3.294-9.442z" fill="url(#SVGID_19_)"/></g></g><g><path d="m186.536 190.854c1.394-3.809-.564-8.028-4.373-9.422s-8.028.564-9.422 4.373.564 8.027 4.373 9.422c3.81 1.394 8.028-.564 9.422-4.373z" fill="url(#SVGID_20_)"/><path d="m163.051 197.079c-3.007-1.1-6.337.445-7.438 3.453-1.101 3.007.445 6.337 3.453 7.438s6.337-.445 7.438-3.453c1.1-3.007-.446-6.337-3.453-7.438z" fill="url(#SVGID_21_)"/><path d="m185.019 211.261c-1.813-.663-3.821.269-4.484 2.082-.664 1.813.268 3.821 2.081 4.484s3.821-.268 4.484-2.081c.664-1.814-.268-3.821-2.081-4.485z" fill="url(#SVGID_22_)"/><path d="m217.123 199.541c-4.032.44-6.944 4.066-6.504 8.099.44 4.032 4.066 6.944 8.099 6.504 4.032-.44 6.944-4.066 6.504-8.099s-4.066-6.944-8.099-6.504z" fill="url(#SVGID_23_)"/><path d="m227.647 180.115c-3.183.348-5.482 3.21-5.135 6.394.348 3.183 3.21 5.482 6.394 5.135 3.183-.348 5.482-3.21 5.135-6.394-.348-3.184-3.211-5.483-6.394-5.135z" fill="url(#SVGID_24_)"/><path d="m202.167 181.727c-1.919.21-3.305 1.935-3.096 3.855.21 1.919 1.935 3.305 3.855 3.096 1.919-.21 3.305-1.935 3.096-3.855s-1.936-3.306-3.855-3.096z" fill="url(#SVGID_25_)"/><path d="m194.854 213.135c-2.804 1.058-4.22 4.19-3.161 6.994 1.058 2.804 4.19 4.22 6.994 3.161 2.804-1.058 4.22-4.19 3.161-6.994s-4.19-4.22-6.994-3.161z" fill="url(#SVGID_26_)"/><path d="m198.803 197.294c-2.214.836-3.331 3.308-2.496 5.522.836 2.214 3.308 3.331 5.522 2.496 2.214-.836 3.331-3.308 2.496-5.522-.836-2.214-3.308-3.332-5.522-2.496z" fill="url(#SVGID_27_)"/><path d="m182.692 207.978c1.335-.504 2.008-1.994 1.505-3.329-.504-1.335-1.994-2.008-3.329-1.505-1.335.504-2.008 1.994-1.505 3.329.504 1.335 1.995 2.009 3.329 1.505z" fill="url(#SVGID_28_)"/><path d="m267.203 188.49c1.394-3.809-.564-8.028-4.373-9.422s-8.028.564-9.422 4.373.564 8.028 4.373 9.422c3.809 1.395 8.027-.563 9.422-4.373z" fill="url(#SVGID_29_)"/><path d="m243.718 194.715c-3.007-1.1-6.337.445-7.438 3.453s.445 6.337 3.452 7.438 6.337-.445 7.438-3.453c1.101-3.007-.445-6.337-3.452-7.438z" fill="url(#SVGID_30_)"/><path d="m265.686 208.898c-1.813-.664-3.821.268-4.484 2.082-.664 1.813.268 3.821 2.081 4.484 1.813.664 3.821-.268 4.484-2.081.664-1.814-.268-3.822-2.081-4.485z" fill="url(#SVGID_31_)"/><path d="m308.184 192.844c-4.032.44-6.944 4.066-6.504 8.099.44 4.032 4.066 6.944 8.099 6.504 4.032-.44 6.944-4.066 6.504-8.099-.44-4.032-4.066-6.944-8.099-6.504z" fill="url(#SVGID_32_)"/><path d="m306.04 183.243c-.348-3.183-3.21-5.482-6.394-5.134s-5.482 3.21-5.135 6.393c.348 3.184 3.21 5.482 6.394 5.135 3.184-.348 5.483-3.211 5.135-6.394z" fill="url(#SVGID_33_)"/><path d="m282.834 179.363c-1.919.21-3.305 1.935-3.096 3.855.21 1.919 1.935 3.305 3.855 3.095 1.919-.21 3.305-1.936 3.096-3.855-.21-1.918-1.936-3.304-3.855-3.095z" fill="url(#SVGID_34_)"/><path d="m275.521 210.771c-2.804 1.058-4.22 4.19-3.161 6.994 1.058 2.804 4.19 4.22 6.994 3.161 2.804-1.058 4.22-4.19 3.161-6.994s-4.19-4.219-6.994-3.161z" fill="url(#SVGID_35_)"/><path d="m279.47 194.93c-2.214.836-3.331 3.308-2.496 5.521.836 2.214 3.308 3.331 5.522 2.496 2.214-.836 3.331-3.308 2.496-5.521-.836-2.214-3.308-3.331-5.522-2.496z" fill="url(#SVGID_36_)"/><path d="m263.359 205.614c1.335-.504 2.008-1.994 1.505-3.329-.504-1.335-1.994-2.008-3.329-1.505-1.335.504-2.008 1.994-1.505 3.329.504 1.336 1.994 2.009 3.329 1.505z" fill="url(#SVGID_37_)"/></g><g><path d="m244.453 176.001c2.483.909 5.232-.368 6.141-2.85.909-2.483-.367-5.232-2.85-6.141s-5.232.367-6.141 2.85c-.909 2.484.367 5.233 2.85 6.141z" fill="url(#SVGID_38_)"/><path d="m220.486 176.012c.432-1.182-.175-2.49-1.357-2.923-1.182-.432-2.49.175-2.922 1.357s.175 2.49 1.357 2.923c1.181.432 2.489-.175 2.922-1.357z" fill="url(#SVGID_39_)"/><path d="m248.273 185.904c-.137-1.251-1.261-2.154-2.512-2.018-1.251.137-2.154 1.261-2.017 2.512s1.261 2.154 2.512 2.018c1.25-.137 2.154-1.261 2.017-2.512z" fill="url(#SVGID_40_)"/><path d="m276.552 174.49c-.137-1.251-1.261-2.154-2.512-2.018-1.251.137-2.154 1.261-2.017 2.512s1.262 2.154 2.512 2.018c1.25-.137 2.153-1.261 2.017-2.512z" fill="url(#SVGID_41_)"/><path d="m219.265 182.422c-.69-1.828-2.731-2.75-4.559-2.06s-2.75 2.731-2.06 4.558c.69 1.828 2.731 2.75 4.558 2.06 1.828-.689 2.751-2.73 2.061-4.558z" fill="url(#SVGID_42_)"/><path d="m235.744 172.515c-.545-1.443-2.156-2.171-3.599-1.627-1.443.545-2.171 2.156-1.627 3.599.545 1.443 2.156 2.171 3.599 1.626 1.444-.544 2.172-2.155 1.627-3.598z" fill="url(#SVGID_43_)"/><path d="m262.476 172.515c-.545-1.443-2.156-2.171-3.599-1.627-1.443.545-2.171 2.156-1.626 3.599s2.156 2.171 3.599 1.626c1.442-.544 2.17-2.155 1.626-3.598z" fill="url(#SVGID_44_)"/><path d="m236.661 180.674c.328.87 1.3 1.309 2.17.981s1.309-1.3.981-2.17-1.3-1.309-2.17-.981c-.871.329-1.31 1.301-.981 2.17z" fill="url(#SVGID_45_)"/></g><path d="m245.256 245.276c-1.655-2.086-4.344-3.319-7.266-2.891h-.01c-.38.06-.76.08-1.14.08-1.539 0-3.037-.459-4.308-1.299-.265-.279-1.66-1.677-2.125-2.044-1.567-1.965-3.834-2.957-6.107-2.957-2.36 0-4.72 1.05-6.28 3.15-1.72 2.31-4.57 3.49-7.41 3.07h-.01c-5.19-.76-9.64 3.7-8.88 8.88v.01c.06.38.08.76.08 1.14 0 2.44-1.15 4.78-3.15 6.27-2.1 1.57-3.15 3.92-3.15 6.27 0 2.28.99 4.554 2.951 6.113.179.228 1.161.277 1.576.702.434.445.299 1.264.436 1.394 1.066 1.589 1.546 3.533 1.257 5.481v.01c-.03.217-.049.424-.059.632 7.337.257 14.748-4.54 22.201-4.391 7.612.152 15.268 5.249 22.936 5.288 11.071.058 22.168-.002 33.189-.178z" fill="url(#SVGID_46_)"/><g><path d="m253.09 264.956c0 2.36-1.05 4.72-3.15 6.28-2.31 1.72-3.49 4.57-3.07 7.41v.01c.08.52.1 1.03.07 1.53-7.75-.03-15.49-.13-23.18-.28-4.25-.09-8.48-.19-12.69-.31-3.15-.09-6.29-.19-9.41-.3.01-.21.03-.42.06-.64v-.01c.42-2.84-.76-5.69-3.07-7.41-2.1-1.56-3.15-3.92-3.15-6.28 0-2.35 1.05-4.7 3.15-6.27 2-1.49 3.15-3.83 3.15-6.27 0-.38-.02-.76-.08-1.14v-.01c-.76-5.18 3.69-9.64 8.88-8.88h.01c2.84.42 5.69-.76 7.41-3.07 1.56-2.1 3.92-3.15 6.28-3.15 2.35 0 4.7 1.05 6.27 3.15 1.49 2 3.83 3.15 6.27 3.15.38 0 .76-.02 1.14-.08h.01c5.18-.76 9.63 3.7 8.88 8.88v.01c-.42 2.84.76 5.69 3.07 7.41 2.1 1.57 3.15 3.92 3.15 6.27z" fill="url(#SVGID_47_)"/><path d="m241.25 262.706c-.46 3.63-2.31 6.85-5.19 9.09-2.89 2.23-6.47 3.21-10.09 2.75-3.09-.39-5.83-1.96-7.73-4.42-1.91-2.46-2.74-5.51-2.35-8.59.25-1.92 2-3.27 3.92-3.03 1.91.24 3.27 2 3.03 3.91-.16 1.23.17 2.44.93 3.42s1.85 1.61 3.08 1.76c1.77.23 3.51-.25 4.92-1.34s2.31-2.66 2.53-4.43c.64-5.03-2.93-9.65-7.97-10.29-3.28-.42-6.53.47-9.14 2.49-2.62 2.03-4.29 4.95-4.71 8.23-1 7.95 3.9 15.31 11.28 17.65-4.25-.09-8.48-.19-12.69-.31-2.07-2.38-3.65-5.18-4.62-8.21-1-3.13-1.35-6.53-.91-10.01 1.35-10.61 11.07-18.14 21.67-16.79 8.87 1.13 15.16 9.26 14.04 18.12z" fill="url(#SVGID_48_)"/></g><path d="m371.567 275.518-75.904-75.904c-1.43-2.248-4.627-3.724-8.169-3.325l-.007.001c-2.846.321-5.692-.588-7.41-2.366-3.13-3.239-9.426-3.239-12.556 0-1.718 1.778-4.564 2.686-7.41 2.366l-.007-.001c-5.184-.584-9.635 2.846-8.878 6.841l.001.005c.416 2.193-.763 4.386-3.07 5.71-4.032 2.314-4.185 6.866-.482 9.363l2.399 2.493c.897.932 1.391 2.231 1.158 3.503-.002.009-.003.018-.005.027l-.001.005c-.407 2.144.695 4.118 2.596 5.404l49.805 49.805c23.688-.753 46.675-2.062 67.94-3.927z" fill="url(#SVGID_49_)"/><g><path d="m299.44 218.52c-2.307 1.324-3.486 3.517-3.07 5.71l.001.005c.758 3.995-3.693 7.425-8.878 6.841l-.007-.001c-2.846-.321-5.692.588-7.41 2.366-3.13 3.239-9.426 3.239-12.556 0-1.718-1.778-4.564-2.686-7.41-2.366l-.007.001c-5.184.584-9.635-2.846-8.877-6.841l.001-.005c.416-2.193-.763-4.386-3.07-5.71-4.203-2.412-4.203-7.263 0-9.675 2.307-1.324 3.486-3.517 3.07-5.71l-.001-.005c-.758-3.995 3.693-7.425 8.878-6.841l.007.001c2.846.321 5.692-.588 7.41-2.366 3.13-3.239 9.426-3.239 12.556 0 1.718 1.778 4.564 2.686 7.41 2.366l.007-.001c5.184-.584 9.635 2.846 8.877 6.841l-.001.005c-.416 2.193.763 4.386 3.07 5.71 4.203 2.412 4.203 7.263 0 9.675z" fill="url(#SVGID_50_)"/><path d="m255.954 218.636c-1.003-2.419-1.353-5.038-.911-7.719 1.348-8.17 11.071-13.973 21.673-12.934 8.865.869 15.16 7.133 14.034 13.964-.46 2.79-2.303 5.275-5.189 6.997s-6.469 2.476-10.091 2.121c-3.082-.302-5.828-1.511-7.73-3.404-1.903-1.893-2.735-4.244-2.342-6.619.244-1.478 1.996-2.523 3.913-2.335 1.918.188 3.274 1.538 3.03 3.016-.156.946.175 1.881.933 2.636.757.754 1.851 1.235 3.079 1.355 1.766.173 3.514-.194 4.922-1.034 1.407-.84 2.306-2.052 2.531-3.413.641-3.881-2.936-7.441-7.972-7.933-3.281-.322-6.529.361-9.144 1.922s-4.285 3.813-4.702 6.342c-1.138 6.893 5.216 13.215 14.162 14.091 1.917.188 3.275 1.536 3.031 3.016-.244 1.478-1.996 2.523-3.914 2.335-9.297-.91-16.633-5.939-19.313-12.404z" fill="url(#SVGID_51_)"/></g><path d="m238.37 276.995c-12.335-.13-24.606 2.715-36.677 2.293-12.913-.452-25.597-1.071-37.883-1.862l-29.04-29.04c-1.9-1.28-3-3.26-2.59-5.4v-.01s0-.01 0-.02c.24-1.27-.26-2.57-1.16-3.51l-2.4-2.49c-1.77-1.2-2.66-2.87-2.66-4.53 0-1.81 1.05-3.63 3.15-4.83 2.3-1.33 3.48-3.52 3.07-5.71v-.01c-.21-1.12-.02-2.2.5-3.15.77-1.46 2.27-2.63 4.14-3.25 1.28-.44 2.72-.61 4.23-.44h.01c2.85.32 5.69-.58 7.41-2.36 1.57-1.62 3.92-2.43 6.28-2.43s4.71.81 6.28 2.43c1.48 1.54 3.82 2.42 6.27 2.42.38 0 .76-.02 1.14-.06 3.55-.4 6.74 1.08 8.17 3.33z" fill="url(#SVGID_52_)"/><g><path d="m180.39 237.27c-2.307 1.324-3.486 3.517-3.07 5.71l.001.005c.758 3.995-3.693 7.425-8.878 6.841l-.007-.001c-2.846-.321-5.692.588-7.41 2.366-3.13 3.239-9.426 3.239-12.556 0-1.718-1.778-4.564-2.686-7.41-2.366l-.007.001c-5.184.584-9.635-2.846-8.877-6.841l.001-.005c.416-2.193-.763-4.386-3.07-5.71-4.203-2.412-4.203-7.263 0-9.675 2.307-1.324 3.486-3.517 3.07-5.71l-.001-.005c-.758-3.995 3.693-7.425 8.878-6.841l.007.001c2.846.321 5.692-.588 7.41-2.366 3.13-3.239 9.426-3.239 12.556 0 1.718 1.778 4.563 2.686 7.41 2.366l.007-.001c5.184-.584 9.635 2.846 8.877 6.841l-.001.005c-.416 2.193.763 4.386 3.07 5.71 4.203 2.412 4.203 7.263 0 9.675z" fill="url(#SVGID_53_)"/><path d="m136.904 237.386c-1.003-2.419-1.353-5.038-.911-7.719 1.348-8.17 11.071-13.973 21.673-12.934 8.865.869 15.16 7.133 14.034 13.964-.46 2.79-2.303 5.275-5.189 6.997s-6.469 2.476-10.091 2.121c-3.082-.302-5.828-1.511-7.73-3.404-1.903-1.893-2.735-4.244-2.342-6.619.244-1.478 1.996-2.523 3.913-2.335 1.918.188 3.274 1.538 3.03 3.016-.156.946.175 1.881.933 2.636.757.754 1.851 1.235 3.079 1.355 1.766.173 3.514-.194 4.922-1.034 1.407-.84 2.306-2.052 2.531-3.413.641-3.881-2.936-7.441-7.972-7.933-3.281-.322-6.529.361-9.144 1.922s-4.285 3.813-4.702 6.342c-1.138 6.893 5.216 13.215 14.162 14.091 1.917.188 3.275 1.536 3.031 3.016-.244 1.478-1.996 2.523-3.914 2.335-9.297-.91-16.633-5.939-19.313-12.404z" fill="url(#SVGID_54_)"/></g><path d="m349.98 107.015c-1.202-3.039 2.101-5.882 4.942-4.266 10.036 5.707 24.769 17.451 24.769 37.215 0 29.971-36.102 32.797-36.102 54.997 0 11.393 1.509 19.261 2.978 24.221.85 2.869-2.086 5.397-4.79 4.118-8.995-4.255-22.83-14.638-22.83-38.253 0-34.989 35.802-34.469 35.802-53.599 0-9.991-2.439-18.542-4.769-24.433z" fill="url(#SVGID_55_)"/><path d="m260.738 25.628c-.784-1.338 1.314-2.558 2.72-1.586 9.536 6.594 25.663 20.536 25.663 39.397 0 26.778-30.522 34.359-34.589 55.241-3.29 16.891 4.25 33.334 7.707 39.721.6 1.108-.781 2.232-2.211 1.804-10.517-3.15-38.81-14.821-34.585-48.447 4.093-32.575 34.71-31.087 40.143-52.163 3.904-15.132-.906-27.24-4.848-33.967z" fill="url(#SVGID_56_)"/><path d="m180.852 114.135c-1.072-2.507 1.174-4.853 3.36-3.52 7.722 4.709 19.268 14.4 20.503 30.708 1.873 24.731-24.445 27.063-23.057 45.382.712 9.401 2.311 15.893 3.699 19.987.803 2.367-1.193 4.454-3.258 3.398-6.867-3.511-17.669-12.079-19.145-31.565-2.187-28.872 24.12-28.443 22.924-44.229-.624-8.244-2.948-15.301-5.026-20.161z" fill="url(#SVGID_57_)"/><path d="m510 241.04c0 29.58-88.88 46.82-192.43 51.7l30.24-15.41c78.99-5.16 141.13-17.26 141.13-36.29 0-8.04-11.09-14.85-29.86-20.41l15.98-8.15c21.89 7.71 34.94 17.23 34.94 28.56z" fill="url(#SVGID_58_)"/><g><path d="m478.944 188.977-211.159 116.709c-2.59 1.79-.362 6.069 4.027 7.737 2.019.767 4.01.753 5.241-.038l215.883-112.785c4.976-3.196-1.029-11.554-9.007-12.537-2.007-.248-3.774.076-4.985.914z" fill="url(#SVGID_59_)"/><path d="m494.194 193.209-215.27 116.709c-2.59 1.79-.362 6.069 4.027 7.737 2.019.767 4.01.753 5.241-.038l219.994-112.785c4.976-3.196-1.029-11.554-9.007-12.537-2.007-.247-3.774.077-4.985.914z" fill="url(#SVGID_60_)"/></g></g></svg>